<svg xmlns="http://www.w3.org/2000/svg" xmlns:xlink="http://www.w3.org/1999/xlink" width="75" zoomAndPan="magnify" viewBox="0 0 56.25 56.249997" height="75" preserveAspectRatio="xMidYMid meet" version="1.0"><defs><g/><clipPath id="ce9cb42f4e"><path d="M 5.550781 5.550781 L 49.957031 5.550781 L 49.957031 49.957031 L 5.550781 49.957031 Z M 5.550781 5.550781 " clip-rule="nonzero"/></clipPath><clipPath id="29ead4be91"><path d="M 41.078125 5.550781 C 45.984375 5.550781 49.957031 9.527344 49.957031 14.433594 L 49.957031 41.078125 C 49.957031 45.984375 45.984375 49.957031 41.078125 49.957031 L 14.433594 49.957031 C 9.527344 49.957031 5.550781 45.984375 5.550781 41.078125 L 5.550781 14.433594 C 5.550781 9.527344 9.527344 5.550781 14.433594 5.550781 Z M 41.078125 5.550781 " clip-rule="nonzero"/></clipPath><clipPath id="88fbeea614"><path d="M 21.277344 27.734375 L 31.839844 27.734375 L 31.839844 33.21875 L 21.277344 33.21875 Z M 21.277344 27.734375 " clip-rule="nonzero"/></clipPath><clipPath id="312834576b"><path d="M 28.9375 29.601562 C 29.117188 29.859375 29.257812 30.132812 29.511719 30.382812 C 29.515625 30.386719 29.511719 30.390625 29.515625 30.398438 C 29.539062 30.414062 29.558594 30.433594 29.578125 30.449219 C 29.585938 30.453125 29.578125 30.457031 29.585938 30.464844 C 29.707031 30.554688 29.816406 30.640625 29.96875 30.699219 C 29.976562 30.703125 29.984375 30.707031 29.992188 30.714844 C 30.089844 30.75 30.1875 30.785156 30.296875 30.800781 C 30.304688 30.800781 30.320312 30.8125 30.328125 30.8125 C 30.402344 30.820312 30.480469 30.832031 30.558594 30.839844 C 30.613281 30.847656 30.667969 30.847656 30.722656 30.851562 C 31.015625 30.867188 31.304688 30.816406 31.597656 30.867188 C 31.625 30.878906 31.652344 30.886719 31.679688 30.898438 C 31.707031 30.90625 31.730469 30.929688 31.75 30.945312 C 31.769531 30.964844 31.785156 30.988281 31.796875 31.015625 C 31.8125 31.039062 31.8125 31.070312 31.820312 31.097656 C 31.824219 31.152344 31.820312 31.199219 31.804688 31.253906 C 31.765625 31.394531 31.714844 31.519531 31.609375 31.644531 C 31.605469 31.652344 31.605469 31.664062 31.597656 31.675781 C 31.28125 32.105469 30.828125 32.425781 30.265625 32.703125 C 30.25 32.707031 30.242188 32.707031 30.230469 32.710938 C 29.648438 32.988281 29.027344 33.136719 28.367188 33.183594 C 27.960938 33.210938 27.582031 33.207031 27.171875 33.144531 C 27.117188 33.136719 27.066406 33.125 27.011719 33.121094 C 26.542969 33.039062 26.144531 32.917969 25.734375 32.71875 C 25.691406 32.691406 25.652344 32.671875 25.601562 32.652344 C 25.308594 32.492188 25.070312 32.328125 24.839844 32.125 C 24.730469 32.023438 24.640625 31.929688 24.542969 31.824219 C 24.492188 31.761719 24.445312 31.710938 24.394531 31.648438 C 24.359375 31.601562 24.332031 31.5625 24.296875 31.519531 C 24.054688 31.199219 23.90625 30.878906 23.605469 30.570312 C 23.597656 30.566406 23.605469 30.5625 23.597656 30.554688 C 23.578125 30.539062 23.558594 30.519531 23.535156 30.503906 C 23.53125 30.5 23.535156 30.496094 23.53125 30.488281 C 23.410156 30.398438 23.300781 30.308594 23.144531 30.253906 C 23.140625 30.25 23.132812 30.242188 23.125 30.238281 C 23.027344 30.203125 22.929688 30.167969 22.816406 30.152344 C 22.8125 30.152344 22.796875 30.140625 22.789062 30.140625 C 22.714844 30.132812 22.636719 30.121094 22.558594 30.109375 C 22.503906 30.105469 22.449219 30.105469 22.390625 30.101562 C 22.097656 30.085938 21.8125 30.136719 21.519531 30.085938 C 21.492188 30.074219 21.464844 30.066406 21.4375 30.054688 C 21.410156 30.042969 21.386719 30.023438 21.367188 30.007812 C 21.34375 29.988281 21.332031 29.960938 21.316406 29.9375 C 21.304688 29.910156 21.304688 29.882812 21.296875 29.855469 C 21.289062 29.800781 21.296875 29.753906 21.308594 29.695312 C 21.351562 29.558594 21.402344 29.429688 21.507812 29.308594 C 21.511719 29.296875 21.511719 29.289062 21.519531 29.277344 C 21.832031 28.847656 22.289062 28.527344 22.851562 28.25 C 22.867188 28.246094 22.875 28.246094 22.886719 28.242188 C 23.464844 27.964844 24.085938 27.816406 24.75 27.769531 C 25.15625 27.738281 25.53125 27.746094 25.945312 27.804688 C 26 27.816406 26.046875 27.828125 26.105469 27.832031 C 26.570312 27.914062 26.96875 28.035156 27.382812 28.234375 C 27.421875 28.261719 27.464844 28.28125 27.515625 28.300781 C 28.128906 28.632812 28.558594 29.054688 28.886719 29.539062 C 28.902344 29.558594 28.921875 29.578125 28.9375 29.601562 Z M 28.9375 29.601562 " clip-rule="nonzero"/></clipPath></defs><g clip-path="url(#ce9cb42f4e)"><g clip-path="url(#29ead4be91)"><path fill="#545454" d="M 5.550781 5.550781 L 49.957031 5.550781 L 49.957031 49.957031 L 5.550781 49.957031 Z M 5.550781 5.550781 " fill-opacity="1" fill-rule="nonzero"/></g></g><g fill="#f8f8f8" fill-opacity="1"><g transform="translate(8.902777, 42.828378)"><g><path d="M 1.1875 -19.734375 C 1.1875 -20.816406 1.28125 -21.6875 1.46875 -22.34375 C 1.65625 -23 1.945312 -23.503906 2.34375 -23.859375 C 2.738281 -24.203125 3.347656 -24.441406 4.171875 -24.578125 C 5.003906 -24.710938 6.238281 -24.78125 7.875 -24.78125 L 10.59375 -24.78125 C 12.226562 -24.78125 13.457031 -24.710938 14.28125 -24.578125 C 15.113281 -24.441406 15.726562 -24.203125 16.125 -23.859375 C 16.519531 -23.503906 16.8125 -23 17 -22.34375 C 17.1875 -21.6875 17.28125 -20.816406 17.28125 -19.734375 L 17.28125 0 L 10.625 0 L 10.625 -5.234375 L 7.84375 -5.234375 L 7.84375 0 L 1.1875 0 Z M 10.625 -10.734375 L 10.625 -17.28125 C 10.625 -18.8125 10.15625 -19.578125 9.21875 -19.578125 C 8.300781 -19.578125 7.84375 -18.8125 7.84375 -17.28125 L 7.84375 -10.734375 Z M 10.625 -10.734375 "/></g></g></g><g fill="#f8f8f8" fill-opacity="1"><g transform="translate(26.377864, 43.801626)"><g><path d="M 7.875 0 C 6.238281 0 5.003906 -0.0664062 4.171875 -0.203125 C 3.347656 -0.335938 2.738281 -0.578125 2.34375 -0.921875 C 1.945312 -1.273438 1.65625 -1.78125 1.46875 -2.4375 C 1.28125 -3.09375 1.1875 -3.960938 1.1875 -5.046875 L 1.1875 -24.78125 L 7.84375 -24.78125 L 7.84375 -7.46875 C 7.84375 -5.957031 8.300781 -5.203125 9.21875 -5.203125 C 10.15625 -5.203125 10.625 -5.957031 10.625 -7.46875 L 10.625 -24.78125 L 17.28125 -24.78125 L 17.28125 -5.046875 C 17.28125 -3.960938 17.1875 -3.09375 17 -2.4375 C 16.8125 -1.78125 16.519531 -1.273438 16.125 -0.921875 C 15.726562 -0.578125 15.109375 -0.335938 14.265625 -0.203125 C 13.421875 -0.0664062 12.195312 0 10.59375 0 Z M 7.875 0 "/></g></g></g><g clip-path="url(#88fbeea614)"><g clip-path="url(#312834576b)"><path fill="#545454" d="M 21.292969 33.199219 L 21.292969 27.75 L 31.820312 27.75 L 31.820312 33.199219 Z M 21.292969 33.199219 " fill-opacity="1" fill-rule="nonzero"/></g></g><g fill="#f8f8f8" fill-opacity="1"><g transform="translate(13.736055, 16.750373)"><g><path d="M 0.15625 -2.65625 C 0.15625 -2.800781 0.164062 -2.914062 0.1875 -3 C 0.21875 -3.09375 0.257812 -3.160156 0.3125 -3.203125 C 0.363281 -3.253906 0.445312 -3.285156 0.5625 -3.296875 C 0.675781 -3.316406 0.84375 -3.328125 1.0625 -3.328125 L 1.421875 -3.328125 C 1.640625 -3.328125 1.804688 -3.316406 1.921875 -3.296875 C 2.035156 -3.285156 2.117188 -3.253906 2.171875 -3.203125 C 2.222656 -3.160156 2.257812 -3.09375 2.28125 -3 C 2.3125 -2.914062 2.328125 -2.800781 2.328125 -2.65625 L 2.328125 0 L 1.4375 0 L 1.4375 -0.703125 L 1.0625 -0.703125 L 1.0625 0 L 0.15625 0 Z M 1.4375 -1.4375 L 1.4375 -2.328125 C 1.4375 -2.535156 1.367188 -2.640625 1.234375 -2.640625 C 1.117188 -2.640625 1.0625 -2.535156 1.0625 -2.328125 L 1.0625 -1.4375 Z M 1.4375 -1.4375 "/></g></g></g><g fill="#f8f8f8" fill-opacity="1"><g transform="translate(17.44458, 16.750373)"><g><path d="M 0.15625 -3.328125 L 1.640625 -3.328125 C 1.773438 -3.328125 1.882812 -3.316406 1.96875 -3.296875 C 2.0625 -3.285156 2.132812 -3.25 2.1875 -3.1875 C 2.238281 -3.132812 2.269531 -3.0625 2.28125 -2.96875 C 2.300781 -2.882812 2.3125 -2.773438 2.3125 -2.640625 L 2.3125 -2.46875 C 2.3125 -2.363281 2.3125 -2.273438 2.3125 -2.203125 C 2.3125 -2.128906 2.300781 -2.066406 2.28125 -2.015625 C 2.269531 -1.960938 2.253906 -1.914062 2.234375 -1.875 C 2.210938 -1.84375 2.1875 -1.816406 2.15625 -1.796875 C 2.132812 -1.773438 2.109375 -1.753906 2.078125 -1.734375 C 2.054688 -1.722656 2.023438 -1.710938 1.984375 -1.703125 C 1.953125 -1.691406 1.910156 -1.679688 1.859375 -1.671875 C 1.804688 -1.660156 1.742188 -1.648438 1.671875 -1.640625 C 1.765625 -1.617188 1.835938 -1.597656 1.890625 -1.578125 C 1.953125 -1.566406 2.003906 -1.550781 2.046875 -1.53125 C 2.085938 -1.519531 2.117188 -1.5 2.140625 -1.46875 C 2.171875 -1.445312 2.195312 -1.425781 2.21875 -1.40625 C 2.28125 -1.300781 2.3125 -1.144531 2.3125 -0.9375 L 2.3125 -0.71875 C 2.3125 -0.414062 2.269531 -0.210938 2.1875 -0.109375 C 2.164062 -0.0859375 2.140625 -0.0664062 2.109375 -0.046875 C 2.085938 -0.0351562 2.054688 -0.0234375 2.015625 -0.015625 C 1.984375 -0.015625 1.941406 -0.0078125 1.890625 0 C 1.835938 0 1.773438 0 1.703125 0 L 0.15625 0 Z M 1.0625 -2.59375 L 1.0625 -2.03125 L 1.21875 -2.03125 C 1.363281 -2.03125 1.4375 -2.113281 1.4375 -2.28125 C 1.4375 -2.394531 1.414062 -2.472656 1.375 -2.515625 C 1.34375 -2.566406 1.289062 -2.59375 1.21875 -2.59375 Z M 1.1875 -0.71875 C 1.269531 -0.71875 1.332031 -0.738281 1.375 -0.78125 C 1.414062 -0.820312 1.4375 -0.890625 1.4375 -0.984375 C 1.4375 -1.109375 1.414062 -1.191406 1.375 -1.234375 C 1.34375 -1.273438 1.28125 -1.296875 1.1875 -1.296875 L 1.0625 -1.296875 L 1.0625 -0.71875 Z M 1.1875 -0.71875 "/></g></g></g><g fill="#f8f8f8" fill-opacity="1"><g transform="translate(21.088047, 16.750373)"><g><path d="M 1.015625 0 C 0.816406 0 0.65625 -0.0234375 0.53125 -0.078125 C 0.414062 -0.140625 0.328125 -0.234375 0.265625 -0.359375 C 0.234375 -0.421875 0.207031 -0.476562 0.1875 -0.53125 C 0.175781 -0.59375 0.164062 -0.660156 0.15625 -0.734375 C 0.144531 -0.804688 0.132812 -0.890625 0.125 -0.984375 C 0.125 -1.085938 0.125 -1.210938 0.125 -1.359375 L 0.125 -1.984375 C 0.125 -2.117188 0.125 -2.234375 0.125 -2.328125 C 0.132812 -2.429688 0.144531 -2.519531 0.15625 -2.59375 C 0.164062 -2.664062 0.175781 -2.734375 0.1875 -2.796875 C 0.207031 -2.859375 0.234375 -2.914062 0.265625 -2.96875 C 0.328125 -3.09375 0.414062 -3.179688 0.53125 -3.234375 C 0.65625 -3.296875 0.816406 -3.328125 1.015625 -3.328125 L 1.421875 -3.328125 C 1.617188 -3.328125 1.773438 -3.296875 1.890625 -3.234375 C 2.015625 -3.179688 2.109375 -3.09375 2.171875 -2.96875 C 2.191406 -2.914062 2.207031 -2.859375 2.21875 -2.796875 C 2.238281 -2.734375 2.253906 -2.664062 2.265625 -2.59375 C 2.273438 -2.519531 2.28125 -2.429688 2.28125 -2.328125 C 2.289062 -2.234375 2.296875 -2.117188 2.296875 -1.984375 L 2.296875 -1.359375 C 2.296875 -1.210938 2.289062 -1.085938 2.28125 -0.984375 C 2.28125 -0.890625 2.273438 -0.804688 2.265625 -0.734375 C 2.253906 -0.660156 2.238281 -0.59375 2.21875 -0.53125 C 2.207031 -0.476562 2.191406 -0.421875 2.171875 -0.359375 C 2.109375 -0.234375 2.015625 -0.140625 1.890625 -0.078125 C 1.773438 -0.0234375 1.617188 0 1.421875 0 Z M 1.40625 -2.375 C 1.40625 -2.457031 1.382812 -2.519531 1.34375 -2.5625 C 1.3125 -2.613281 1.269531 -2.640625 1.21875 -2.640625 C 1.15625 -2.640625 1.109375 -2.613281 1.078125 -2.5625 C 1.046875 -2.519531 1.03125 -2.457031 1.03125 -2.375 L 1.03125 -0.9375 C 1.03125 -0.851562 1.046875 -0.789062 1.078125 -0.75 C 1.109375 -0.707031 1.15625 -0.6875 1.21875 -0.6875 C 1.269531 -0.6875 1.3125 -0.707031 1.34375 -0.75 C 1.382812 -0.789062 1.40625 -0.851562 1.40625 -0.9375 Z M 1.40625 -2.375 "/></g></g></g><g fill="#f8f8f8" fill-opacity="1"><g transform="translate(24.731513, 16.750373)"><g><path d="M 1.0625 0 C 0.84375 0 0.675781 -0.0078125 0.5625 -0.03125 C 0.445312 -0.0507812 0.363281 -0.0820312 0.3125 -0.125 C 0.257812 -0.164062 0.21875 -0.226562 0.1875 -0.3125 C 0.164062 -0.40625 0.15625 -0.53125 0.15625 -0.6875 L 0.15625 -3.328125 L 1.0625 -3.328125 L 1.0625 -1 C 1.0625 -0.800781 1.117188 -0.703125 1.234375 -0.703125 C 1.367188 -0.703125 1.4375 -0.800781 1.4375 -1 L 1.4375 -3.328125 L 2.328125 -3.328125 L 2.328125 -0.6875 C 2.328125 -0.53125 2.3125 -0.40625 2.28125 -0.3125 C 2.257812 -0.226562 2.222656 -0.164062 2.171875 -0.125 C 2.117188 -0.0820312 2.035156 -0.0507812 1.921875 -0.03125 C 1.804688 -0.0078125 1.640625 0 1.421875 0 Z M 1.0625 0 "/></g></g></g><g fill="#f8f8f8" fill-opacity="1"><g transform="translate(28.435034, 16.750373)"><g><path d="M 0.40625 -2.609375 L 0 -2.609375 L 0 -3.328125 L 1.703125 -3.328125 L 1.703125 -2.609375 L 1.296875 -2.609375 L 1.296875 0 L 0.40625 0 Z M 0.40625 -2.609375 "/></g></g></g><g fill="#f8f8f8" fill-opacity="1"><g transform="translate(31.357847, 16.750373)"><g/></g></g><g fill="#f8f8f8" fill-opacity="1"><g transform="translate(33.76019, 16.750373)"><g><path d="M 1.0625 0 C 0.84375 0 0.675781 -0.0078125 0.5625 -0.03125 C 0.445312 -0.0507812 0.363281 -0.0820312 0.3125 -0.125 C 0.257812 -0.164062 0.21875 -0.226562 0.1875 -0.3125 C 0.164062 -0.40625 0.15625 -0.53125 0.15625 -0.6875 L 0.15625 -3.328125 L 1.0625 -3.328125 L 1.0625 -1 C 1.0625 -0.800781 1.117188 -0.703125 1.234375 -0.703125 C 1.367188 -0.703125 1.4375 -0.800781 1.4375 -1 L 1.4375 -3.328125 L 2.328125 -3.328125 L 2.328125 -0.6875 C 2.328125 -0.53125 2.3125 -0.40625 2.28125 -0.3125 C 2.257812 -0.226562 2.222656 -0.164062 2.171875 -0.125 C 2.117188 -0.0820312 2.035156 -0.0507812 1.921875 -0.03125 C 1.804688 -0.0078125 1.640625 0 1.421875 0 Z M 1.0625 0 "/></g></g></g><g fill="#f8f8f8" fill-opacity="1"><g transform="translate(37.463711, 16.750373)"><g><path d="M 0.078125 -0.71875 L 0.921875 -0.71875 L 0.921875 -1.3125 L 0.78125 -1.3125 C 0.601562 -1.3125 0.472656 -1.320312 0.390625 -1.34375 C 0.304688 -1.375 0.238281 -1.429688 0.1875 -1.515625 C 0.164062 -1.546875 0.144531 -1.582031 0.125 -1.625 C 0.113281 -1.664062 0.101562 -1.710938 0.09375 -1.765625 C 0.0820312 -1.816406 0.0703125 -1.878906 0.0625 -1.953125 C 0.0625 -2.023438 0.0625 -2.113281 0.0625 -2.21875 L 0.0625 -2.421875 C 0.0625 -2.835938 0.132812 -3.101562 0.28125 -3.21875 C 0.300781 -3.238281 0.328125 -3.257812 0.359375 -3.28125 C 0.398438 -3.300781 0.441406 -3.3125 0.484375 -3.3125 C 0.535156 -3.320312 0.597656 -3.328125 0.671875 -3.328125 C 0.753906 -3.328125 0.859375 -3.328125 0.984375 -3.328125 L 1.75 -3.328125 L 1.75 -2.609375 L 0.96875 -2.609375 L 0.96875 -2.03125 L 1.125 -2.03125 C 1.269531 -2.03125 1.390625 -2.015625 1.484375 -1.984375 C 1.578125 -1.960938 1.648438 -1.914062 1.703125 -1.84375 C 1.753906 -1.78125 1.789062 -1.691406 1.8125 -1.578125 C 1.832031 -1.460938 1.84375 -1.316406 1.84375 -1.140625 L 1.84375 -0.9375 C 1.84375 -0.738281 1.828125 -0.578125 1.796875 -0.453125 C 1.773438 -0.328125 1.738281 -0.234375 1.6875 -0.171875 C 1.644531 -0.117188 1.59375 -0.078125 1.53125 -0.046875 C 1.476562 -0.0234375 1.398438 -0.0078125 1.296875 0 L 0.078125 0 Z M 0.078125 -0.71875 "/></g></g></g></svg>