<svg xmlns="http://www.w3.org/2000/svg" xmlns:xlink="http://www.w3.org/1999/xlink" width="75" zoomAndPan="magnify" viewBox="0 0 56.25 56.249997" height="75" preserveAspectRatio="xMidYMid meet" version="1.0"><defs><g/><clipPath id="ad689b45eb"><path d="M 5.550781 5.550781 L 49.957031 5.550781 L 49.957031 49.957031 L 5.550781 49.957031 Z M 5.550781 5.550781 " clip-rule="nonzero"/></clipPath><clipPath id="5361129e75"><path d="M 41.078125 5.550781 C 45.984375 5.550781 49.957031 9.527344 49.957031 14.433594 L 49.957031 41.078125 C 49.957031 45.984375 45.984375 49.957031 41.078125 49.957031 L 14.433594 49.957031 C 9.527344 49.957031 5.550781 45.984375 5.550781 41.078125 L 5.550781 14.433594 C 5.550781 9.527344 9.527344 5.550781 14.433594 5.550781 Z M 41.078125 5.550781 " clip-rule="nonzero"/></clipPath><clipPath id="a865a67c9e"><path d="M 43.472656 44.164062 L 49.957031 44.164062 L 49.957031 48.179688 L 43.472656 48.179688 Z M 43.472656 44.164062 " clip-rule="nonzero"/></clipPath><clipPath id="ba2143940c"><path d="M 21.277344 27.734375 L 31.839844 27.734375 L 31.839844 33.21875 L 21.277344 33.21875 Z M 21.277344 27.734375 " clip-rule="nonzero"/></clipPath><clipPath id="71065c9dc7"><path d="M 28.9375 29.601562 C 29.117188 29.859375 29.257812 30.132812 29.511719 30.382812 C 29.515625 30.386719 29.511719 30.390625 29.515625 30.398438 C 29.539062 30.414062 29.558594 30.433594 29.578125 30.449219 C 29.585938 30.453125 29.578125 30.457031 29.585938 30.464844 C 29.707031 30.554688 29.816406 30.640625 29.96875 30.699219 C 29.976562 30.703125 29.984375 30.707031 29.992188 30.714844 C 30.089844 30.75 30.1875 30.785156 30.296875 30.800781 C 30.304688 30.800781 30.320312 30.8125 30.328125 30.8125 C 30.402344 30.820312 30.480469 30.832031 30.558594 30.839844 C 30.613281 30.847656 30.667969 30.847656 30.722656 30.851562 C 31.015625 30.867188 31.304688 30.816406 31.597656 30.867188 C 31.625 30.878906 31.652344 30.886719 31.679688 30.898438 C 31.707031 30.90625 31.730469 30.929688 31.75 30.945312 C 31.769531 30.964844 31.785156 30.988281 31.796875 31.015625 C 31.8125 31.039062 31.8125 31.070312 31.820312 31.097656 C 31.824219 31.152344 31.820312 31.199219 31.804688 31.253906 C 31.765625 31.394531 31.714844 31.519531 31.609375 31.644531 C 31.605469 31.652344 31.605469 31.664062 31.597656 31.675781 C 31.28125 32.105469 30.828125 32.425781 30.265625 32.703125 C 30.25 32.707031 30.242188 32.707031 30.230469 32.710938 C 29.648438 32.988281 29.027344 33.136719 28.367188 33.183594 C 27.960938 33.210938 27.582031 33.207031 27.171875 33.144531 C 27.117188 33.136719 27.066406 33.125 27.011719 33.121094 C 26.542969 33.039062 26.144531 32.917969 25.734375 32.71875 C 25.691406 32.691406 25.652344 32.671875 25.601562 32.652344 C 25.308594 32.492188 25.070312 32.328125 24.839844 32.125 C 24.730469 32.023438 24.640625 31.929688 24.542969 31.824219 C 24.492188 31.761719 24.445312 31.710938 24.394531 31.648438 C 24.359375 31.601562 24.332031 31.5625 24.296875 31.519531 C 24.054688 31.199219 23.90625 30.878906 23.605469 30.570312 C 23.597656 30.566406 23.605469 30.5625 23.597656 30.554688 C 23.578125 30.539062 23.558594 30.519531 23.535156 30.503906 C 23.53125 30.5 23.535156 30.496094 23.53125 30.488281 C 23.410156 30.398438 23.300781 30.308594 23.144531 30.253906 C 23.140625 30.25 23.132812 30.242188 23.125 30.238281 C 23.027344 30.203125 22.929688 30.167969 22.816406 30.152344 C 22.8125 30.152344 22.796875 30.140625 22.789062 30.140625 C 22.714844 30.132812 22.636719 30.121094 22.558594 30.109375 C 22.503906 30.105469 22.449219 30.105469 22.390625 30.101562 C 22.097656 30.085938 21.8125 30.136719 21.519531 30.085938 C 21.492188 30.074219 21.464844 30.066406 21.4375 30.054688 C 21.410156 30.042969 21.386719 30.023438 21.367188 30.007812 C 21.34375 29.988281 21.332031 29.960938 21.316406 29.9375 C 21.304688 29.910156 21.304688 29.882812 21.296875 29.855469 C 21.289062 29.800781 21.296875 29.753906 21.308594 29.695312 C 21.351562 29.558594 21.402344 29.429688 21.507812 29.308594 C 21.511719 29.296875 21.511719 29.289062 21.519531 29.277344 C 21.832031 28.847656 22.289062 28.527344 22.851562 28.25 C 22.867188 28.246094 22.875 28.246094 22.886719 28.242188 C 23.464844 27.964844 24.085938 27.816406 24.75 27.769531 C 25.15625 27.738281 25.53125 27.746094 25.945312 27.804688 C 26 27.816406 26.046875 27.828125 26.105469 27.832031 C 26.570312 27.914062 26.96875 28.035156 27.382812 28.234375 C 27.421875 28.261719 27.464844 28.28125 27.515625 28.300781 C 28.128906 28.632812 28.558594 29.054688 28.886719 29.539062 C 28.902344 29.558594 28.921875 29.578125 28.9375 29.601562 Z M 28.9375 29.601562 " clip-rule="nonzero"/></clipPath></defs><g clip-path="url(#ad689b45eb)"><g clip-path="url(#5361129e75)"><path fill="#545454" d="M 5.550781 5.550781 L 49.957031 5.550781 L 49.957031 49.957031 L 5.550781 49.957031 Z M 5.550781 5.550781 " fill-opacity="1" fill-rule="nonzero"/></g></g><g fill="#f8f8f8" fill-opacity="1"><g transform="translate(10.797051, 42.828378)"><g><path d="M 7.546875 0 C 6.753906 0 6.128906 -0.00390625 5.671875 -0.015625 C 5.210938 -0.0234375 4.851562 -0.0390625 4.59375 -0.0625 C 4.332031 -0.09375 4.132812 -0.113281 4 -0.125 C 3.863281 -0.144531 3.71875 -0.175781 3.5625 -0.21875 C 3.039062 -0.375 2.613281 -0.617188 2.28125 -0.953125 C 1.945312 -1.285156 1.679688 -1.78125 1.484375 -2.4375 C 1.285156 -3.09375 1.148438 -3.941406 1.078125 -4.984375 C 1.003906 -6.023438 0.96875 -7.335938 0.96875 -8.921875 L 0.96875 -16.828125 C 0.96875 -17.203125 0.976562 -17.617188 1 -18.078125 C 1.03125 -18.535156 1.0625 -18.988281 1.09375 -19.4375 C 1.132812 -19.882812 1.171875 -20.296875 1.203125 -20.671875 C 1.242188 -21.054688 1.289062 -21.363281 1.34375 -21.59375 C 1.507812 -22.457031 1.785156 -23.117188 2.171875 -23.578125 C 2.554688 -24.035156 3.097656 -24.363281 3.796875 -24.5625 C 3.941406 -24.582031 4.09375 -24.601562 4.25 -24.625 C 4.414062 -24.65625 4.628906 -24.679688 4.890625 -24.703125 C 5.148438 -24.734375 5.488281 -24.753906 5.90625 -24.765625 C 6.332031 -24.773438 6.878906 -24.78125 7.546875 -24.78125 L 13.75 -24.78125 L 13.75 -19.390625 L 7.609375 -19.390625 L 7.609375 -15.078125 L 13.75 -15.078125 L 13.75 -9.703125 L 7.609375 -9.703125 L 7.609375 -5.390625 L 13.75 -5.390625 L 13.75 0 Z M 7.546875 0 "/></g></g></g><g clip-path="url(#a865a67c9e)"><path fill="#f8f8f8" d="M 43.472656 44.164062 L 49.957031 44.164062 L 49.957031 48.179688 L 43.472656 48.179688 Z M 43.472656 44.164062 " fill-opacity="1" fill-rule="nonzero"/></g><g fill="#f8f8f8" fill-opacity="1"><g transform="translate(26.601638, 42.24116)"><g><path d="M 13.109375 5.9375 C 12.316406 5.9375 11.75 5.882812 11.40625 5.78125 C 11.0625 5.6875 10.789062 5.46875 10.59375 5.125 C 10.46875 4.925781 10.390625 4.707031 10.359375 4.46875 C 10.335938 4.238281 10.328125 3.765625 10.328125 3.046875 L 10.328125 0 L 7.6875 0 C 6.351562 0 5.242188 -0.148438 4.359375 -0.453125 C 3.484375 -0.765625 2.796875 -1.316406 2.296875 -2.109375 C 1.804688 -2.910156 1.460938 -4.003906 1.265625 -5.390625 C 1.066406 -6.773438 0.96875 -8.53125 0.96875 -10.65625 L 0.96875 -15.125 C 0.96875 -16.925781 1.078125 -18.445312 1.296875 -19.6875 C 1.523438 -20.925781 1.898438 -21.921875 2.421875 -22.671875 C 2.941406 -23.429688 3.632812 -23.972656 4.5 -24.296875 C 5.363281 -24.617188 6.425781 -24.78125 7.6875 -24.78125 L 10.515625 -24.78125 C 12.003906 -24.78125 13.195312 -24.5625 14.09375 -24.125 C 15 -23.695312 15.664062 -23.015625 16.09375 -22.078125 C 16.289062 -21.648438 16.445312 -21.21875 16.5625 -20.78125 C 16.6875 -20.351562 16.785156 -19.859375 16.859375 -19.296875 C 16.941406 -18.742188 17 -18.101562 17.03125 -17.375 C 17.070312 -16.644531 17.09375 -15.757812 17.09375 -14.71875 L 17.09375 -8.84375 C 17.09375 -6.539062 16.863281 -4.722656 16.40625 -3.390625 C 15.945312 -2.066406 15.234375 -1.125 14.265625 -0.5625 L 14.265625 0.859375 C 14.265625 1.578125 14.625 1.9375 15.34375 1.9375 L 17.09375 1.9375 L 17.09375 5.9375 Z M 10.4375 -17.6875 C 10.4375 -19 9.976562 -19.65625 9.0625 -19.65625 C 8.613281 -19.65625 8.257812 -19.472656 8 -19.109375 C 7.738281 -18.753906 7.609375 -18.28125 7.609375 -17.6875 L 7.609375 -7.015625 C 7.609375 -6.398438 7.738281 -5.914062 8 -5.5625 C 8.257812 -5.21875 8.613281 -5.046875 9.0625 -5.046875 C 9.976562 -5.046875 10.4375 -5.703125 10.4375 -7.015625 Z M 10.4375 -17.6875 "/></g></g></g><g clip-path="url(#ba2143940c)"><g clip-path="url(#71065c9dc7)"><path fill="#545454" d="M 21.292969 33.199219 L 21.292969 27.75 L 31.820312 27.75 L 31.820312 33.199219 Z M 21.292969 33.199219 " fill-opacity="1" fill-rule="nonzero"/></g></g><g fill="#f8f8f8" fill-opacity="1"><g transform="translate(22.398139, 12.805047)"><g><path d="M 0.546875 0 C 0.484375 0 0.4375 0 0.40625 0 C 0.375 0 0.347656 0 0.328125 0 C 0.304688 -0.0078125 0.289062 -0.015625 0.28125 -0.015625 C 0.269531 -0.015625 0.257812 -0.015625 0.25 -0.015625 C 0.21875 -0.0234375 0.1875 -0.0390625 0.15625 -0.0625 C 0.132812 -0.09375 0.113281 -0.128906 0.09375 -0.171875 C 0.0820312 -0.222656 0.0703125 -0.285156 0.0625 -0.359375 C 0.0625 -0.429688 0.0625 -0.523438 0.0625 -0.640625 L 0.0625 -1.203125 C 0.0625 -1.234375 0.0625 -1.265625 0.0625 -1.296875 C 0.0703125 -1.328125 0.078125 -1.359375 0.078125 -1.390625 C 0.078125 -1.429688 0.078125 -1.460938 0.078125 -1.484375 C 0.0859375 -1.515625 0.09375 -1.535156 0.09375 -1.546875 C 0.101562 -1.609375 0.125 -1.65625 0.15625 -1.6875 C 0.1875 -1.726562 0.222656 -1.753906 0.265625 -1.765625 C 0.273438 -1.765625 0.285156 -1.765625 0.296875 -1.765625 C 0.316406 -1.773438 0.332031 -1.78125 0.34375 -1.78125 C 0.363281 -1.78125 0.390625 -1.78125 0.421875 -1.78125 C 0.453125 -1.78125 0.492188 -1.78125 0.546875 -1.78125 L 0.984375 -1.78125 L 0.984375 -1.390625 L 0.546875 -1.390625 L 0.546875 -1.078125 L 0.984375 -1.078125 L 0.984375 -0.703125 L 0.546875 -0.703125 L 0.546875 -0.390625 L 0.984375 -0.390625 L 0.984375 0 Z M 0.546875 0 "/></g></g></g><g fill="#f8f8f8" fill-opacity="1"><g transform="translate(24.10082, 12.805047)"><g><path d="M 0.078125 -1.328125 C 0.078125 -1.429688 0.078125 -1.519531 0.078125 -1.59375 C 0.078125 -1.664062 0.0703125 -1.726562 0.0625 -1.78125 L 0.609375 -1.78125 C 0.585938 -1.707031 0.570312 -1.632812 0.5625 -1.5625 C 0.5625 -1.5 0.5625 -1.425781 0.5625 -1.34375 L 0.5625 -0.390625 L 0.890625 -0.40625 L 0.796875 0 L 0.078125 0 Z M 0.078125 -1.328125 "/></g></g></g><g fill="#f8f8f8" fill-opacity="1"><g transform="translate(25.614324, 12.805047)"><g><path d="M 0.546875 0 C 0.484375 0 0.4375 0 0.40625 0 C 0.375 0 0.347656 0 0.328125 0 C 0.304688 -0.0078125 0.289062 -0.015625 0.28125 -0.015625 C 0.269531 -0.015625 0.257812 -0.015625 0.25 -0.015625 C 0.21875 -0.0234375 0.1875 -0.0390625 0.15625 -0.0625 C 0.132812 -0.09375 0.113281 -0.128906 0.09375 -0.171875 C 0.0820312 -0.222656 0.0703125 -0.285156 0.0625 -0.359375 C 0.0625 -0.429688 0.0625 -0.523438 0.0625 -0.640625 L 0.0625 -1.203125 C 0.0625 -1.234375 0.0625 -1.265625 0.0625 -1.296875 C 0.0703125 -1.328125 0.078125 -1.359375 0.078125 -1.390625 C 0.078125 -1.429688 0.078125 -1.460938 0.078125 -1.484375 C 0.0859375 -1.515625 0.09375 -1.535156 0.09375 -1.546875 C 0.101562 -1.609375 0.125 -1.65625 0.15625 -1.6875 C 0.1875 -1.726562 0.222656 -1.753906 0.265625 -1.765625 C 0.273438 -1.765625 0.285156 -1.765625 0.296875 -1.765625 C 0.316406 -1.773438 0.332031 -1.78125 0.34375 -1.78125 C 0.363281 -1.78125 0.390625 -1.78125 0.421875 -1.78125 C 0.453125 -1.78125 0.492188 -1.78125 0.546875 -1.78125 L 0.984375 -1.78125 L 0.984375 -1.390625 L 0.546875 -1.390625 L 0.546875 -1.078125 L 0.984375 -1.078125 L 0.984375 -0.703125 L 0.546875 -0.703125 L 0.546875 -0.390625 L 0.984375 -0.390625 L 0.984375 0 Z M 0.546875 0 "/></g></g></g><g fill="#f8f8f8" fill-opacity="1"><g transform="translate(27.317005, 12.805047)"><g><path d="M 0.546875 0 C 0.484375 0 0.4375 0 0.40625 0 C 0.375 0 0.347656 0 0.328125 0 C 0.304688 -0.0078125 0.289062 -0.015625 0.28125 -0.015625 C 0.269531 -0.015625 0.257812 -0.015625 0.25 -0.015625 C 0.21875 -0.0234375 0.1875 -0.0390625 0.15625 -0.0625 C 0.132812 -0.09375 0.113281 -0.128906 0.09375 -0.171875 C 0.0820312 -0.222656 0.0703125 -0.285156 0.0625 -0.359375 C 0.0625 -0.429688 0.0625 -0.523438 0.0625 -0.640625 L 0.0625 -1.203125 C 0.0625 -1.234375 0.0625 -1.265625 0.0625 -1.296875 C 0.0703125 -1.328125 0.078125 -1.359375 0.078125 -1.390625 C 0.078125 -1.429688 0.078125 -1.460938 0.078125 -1.484375 C 0.0859375 -1.515625 0.09375 -1.535156 0.09375 -1.546875 C 0.101562 -1.609375 0.125 -1.65625 0.15625 -1.6875 C 0.1875 -1.726562 0.222656 -1.753906 0.265625 -1.765625 C 0.273438 -1.765625 0.285156 -1.765625 0.296875 -1.765625 C 0.316406 -1.773438 0.332031 -1.78125 0.34375 -1.78125 C 0.363281 -1.78125 0.390625 -1.78125 0.421875 -1.78125 C 0.453125 -1.78125 0.492188 -1.78125 0.546875 -1.78125 L 0.84375 -1.78125 L 0.84375 -1.390625 L 0.765625 -1.390625 C 0.734375 -1.390625 0.707031 -1.390625 0.6875 -1.390625 C 0.664062 -1.390625 0.648438 -1.390625 0.640625 -1.390625 C 0.628906 -1.390625 0.617188 -1.382812 0.609375 -1.375 C 0.597656 -1.375 0.585938 -1.367188 0.578125 -1.359375 C 0.566406 -1.347656 0.554688 -1.332031 0.546875 -1.3125 C 0.546875 -1.289062 0.546875 -1.242188 0.546875 -1.171875 L 0.546875 -0.609375 C 0.546875 -0.535156 0.546875 -0.488281 0.546875 -0.46875 C 0.554688 -0.457031 0.566406 -0.441406 0.578125 -0.421875 C 0.585938 -0.410156 0.597656 -0.398438 0.609375 -0.390625 C 0.617188 -0.390625 0.628906 -0.390625 0.640625 -0.390625 C 0.648438 -0.390625 0.664062 -0.390625 0.6875 -0.390625 C 0.707031 -0.390625 0.734375 -0.390625 0.765625 -0.390625 L 0.859375 -0.390625 L 0.859375 0 Z M 0.546875 0 "/></g></g></g><g fill="#f8f8f8" fill-opacity="1"><g transform="translate(28.849161, 12.805047)"><g><path d="M 0.21875 -1.390625 L 0 -1.390625 L 0 -1.78125 L 0.90625 -1.78125 L 0.90625 -1.390625 L 0.6875 -1.390625 L 0.6875 0 L 0.21875 0 Z M 0.21875 -1.390625 "/></g></g></g><g fill="#f8f8f8" fill-opacity="1"><g transform="translate(30.405297, 12.805047)"><g><path d="M 0.078125 -1.78125 L 0.8125 -1.78125 C 0.875 -1.78125 0.921875 -1.78125 0.953125 -1.78125 C 0.992188 -1.78125 1.023438 -1.773438 1.046875 -1.765625 C 1.066406 -1.765625 1.082031 -1.757812 1.09375 -1.75 C 1.101562 -1.75 1.117188 -1.742188 1.140625 -1.734375 C 1.210938 -1.691406 1.25 -1.59375 1.25 -1.4375 L 1.25 -1.328125 C 1.25 -1.273438 1.242188 -1.234375 1.234375 -1.203125 C 1.234375 -1.179688 1.234375 -1.15625 1.234375 -1.125 C 1.234375 -1.101562 1.226562 -1.082031 1.21875 -1.0625 C 1.207031 -1.050781 1.195312 -1.039062 1.1875 -1.03125 C 1.164062 -0.988281 1.140625 -0.957031 1.109375 -0.9375 C 1.078125 -0.925781 1.035156 -0.914062 0.984375 -0.90625 C 1.035156 -0.894531 1.078125 -0.878906 1.109375 -0.859375 C 1.140625 -0.847656 1.164062 -0.828125 1.1875 -0.796875 C 1.207031 -0.773438 1.222656 -0.742188 1.234375 -0.703125 C 1.242188 -0.671875 1.25 -0.628906 1.25 -0.578125 L 1.25 -0.296875 C 1.25 -0.191406 1.257812 -0.09375 1.28125 0 L 0.796875 0 C 0.785156 -0.0390625 0.773438 -0.0820312 0.765625 -0.125 C 0.765625 -0.175781 0.765625 -0.234375 0.765625 -0.296875 L 0.765625 -0.53125 C 0.765625 -0.59375 0.753906 -0.632812 0.734375 -0.65625 C 0.710938 -0.6875 0.675781 -0.703125 0.625 -0.703125 L 0.5625 -0.703125 L 0.5625 0 L 0.078125 0 Z M 0.625 -1.078125 C 0.6875 -1.078125 0.722656 -1.085938 0.734375 -1.109375 C 0.753906 -1.128906 0.765625 -1.171875 0.765625 -1.234375 C 0.765625 -1.296875 0.753906 -1.335938 0.734375 -1.359375 C 0.710938 -1.378906 0.675781 -1.390625 0.625 -1.390625 L 0.5625 -1.390625 L 0.5625 -1.078125 Z M 0.625 -1.078125 "/></g></g></g><g fill="#f8f8f8" fill-opacity="1"><g transform="translate(32.37709, 12.805047)"><g><path d="M 0.078125 -1.78125 L 0.5625 -1.78125 L 0.5625 0 L 0.078125 0 Z M 0.078125 -1.78125 "/></g></g></g><g fill="#f8f8f8" fill-opacity="1"><g transform="translate(33.672109, 12.805047)"><g><path d="M 0.9375 0.421875 C 0.882812 0.421875 0.84375 0.414062 0.8125 0.40625 C 0.789062 0.40625 0.773438 0.394531 0.765625 0.375 C 0.753906 0.351562 0.75 0.332031 0.75 0.3125 C 0.75 0.300781 0.75 0.269531 0.75 0.21875 L 0.75 0 L 0.546875 0 C 0.453125 0 0.375 -0.0078125 0.3125 -0.03125 C 0.25 -0.0507812 0.195312 -0.0859375 0.15625 -0.140625 C 0.125 -0.203125 0.0976562 -0.28125 0.078125 -0.375 C 0.0664062 -0.476562 0.0625 -0.609375 0.0625 -0.765625 L 0.0625 -1.09375 C 0.0625 -1.21875 0.0703125 -1.320312 0.09375 -1.40625 C 0.113281 -1.5 0.140625 -1.570312 0.171875 -1.625 C 0.210938 -1.6875 0.265625 -1.726562 0.328125 -1.75 C 0.390625 -1.769531 0.460938 -1.78125 0.546875 -1.78125 L 0.75 -1.78125 C 0.863281 -1.78125 0.953125 -1.765625 1.015625 -1.734375 C 1.078125 -1.703125 1.125 -1.65625 1.15625 -1.59375 C 1.164062 -1.5625 1.175781 -1.53125 1.1875 -1.5 C 1.195312 -1.46875 1.203125 -1.429688 1.203125 -1.390625 C 1.210938 -1.347656 1.21875 -1.300781 1.21875 -1.25 C 1.226562 -1.195312 1.234375 -1.132812 1.234375 -1.0625 L 1.234375 -0.640625 C 1.234375 -0.472656 1.210938 -0.335938 1.171875 -0.234375 C 1.140625 -0.140625 1.09375 -0.078125 1.03125 -0.046875 L 1.03125 0.0625 C 1.03125 0.113281 1.054688 0.140625 1.109375 0.140625 L 1.234375 0.140625 L 1.234375 0.421875 Z M 0.75 -1.265625 C 0.75 -1.359375 0.71875 -1.40625 0.65625 -1.40625 C 0.625 -1.40625 0.597656 -1.394531 0.578125 -1.375 C 0.554688 -1.351562 0.546875 -1.316406 0.546875 -1.265625 L 0.546875 -0.5 C 0.546875 -0.457031 0.554688 -0.421875 0.578125 -0.390625 C 0.597656 -0.367188 0.625 -0.359375 0.65625 -0.359375 C 0.71875 -0.359375 0.75 -0.40625 0.75 -0.5 Z M 0.75 -1.265625 "/></g></g></g></svg>