<svg xmlns="http://www.w3.org/2000/svg" xmlns:xlink="http://www.w3.org/1999/xlink" width="75" zoomAndPan="magnify" viewBox="0 0 56.25 56.249997" height="75" preserveAspectRatio="xMidYMid meet" version="1.0"><defs><g/><clipPath id="fe1e6a3d9b"><path d="M 5.550781 5.550781 L 49.957031 5.550781 L 49.957031 49.957031 L 5.550781 49.957031 Z M 5.550781 5.550781 " clip-rule="nonzero"/></clipPath><clipPath id="e3b78c806f"><path d="M 41.078125 5.550781 C 45.984375 5.550781 49.957031 9.527344 49.957031 14.433594 L 49.957031 41.078125 C 49.957031 45.984375 45.984375 49.957031 41.078125 49.957031 L 14.433594 49.957031 C 9.527344 49.957031 5.550781 45.984375 5.550781 41.078125 L 5.550781 14.433594 C 5.550781 9.527344 9.527344 5.550781 14.433594 5.550781 Z M 41.078125 5.550781 " clip-rule="nonzero"/></clipPath><clipPath id="8453f0592c"><path d="M 25.011719 37.183594 L 30.492188 37.183594 L 30.492188 47.746094 L 25.011719 47.746094 Z M 25.011719 37.183594 " clip-rule="nonzero"/></clipPath><clipPath id="12fc7bc349"><path d="M 26.875 40.085938 C 27.136719 39.902344 27.410156 39.765625 27.660156 39.511719 C 27.664062 39.507812 27.667969 39.511719 27.675781 39.507812 C 27.6875 39.484375 27.710938 39.464844 27.726562 39.445312 C 27.730469 39.4375 27.734375 39.445312 27.742188 39.4375 C 27.832031 39.316406 27.917969 39.207031 27.976562 39.054688 C 27.980469 39.046875 27.984375 39.039062 27.992188 39.03125 C 28.027344 38.933594 28.0625 38.835938 28.078125 38.726562 C 28.078125 38.71875 28.089844 38.703125 28.089844 38.695312 C 28.097656 38.621094 28.109375 38.542969 28.117188 38.464844 C 28.125 38.410156 28.125 38.355469 28.128906 38.300781 C 28.144531 38.007812 28.09375 37.71875 28.144531 37.425781 C 28.15625 37.398438 28.164062 37.371094 28.175781 37.34375 C 28.183594 37.316406 28.207031 37.292969 28.222656 37.273438 C 28.242188 37.253906 28.265625 37.238281 28.292969 37.222656 C 28.316406 37.210938 28.347656 37.210938 28.375 37.203125 C 28.429688 37.199219 28.476562 37.203125 28.53125 37.21875 C 28.671875 37.257812 28.796875 37.308594 28.921875 37.414062 C 28.929688 37.417969 28.941406 37.417969 28.953125 37.425781 C 29.382812 37.742188 29.703125 38.195312 29.980469 38.757812 C 29.984375 38.773438 29.984375 38.78125 29.988281 38.792969 C 30.265625 39.375 30.414062 39.996094 30.460938 40.65625 C 30.488281 41.0625 30.484375 41.4375 30.421875 41.851562 C 30.414062 41.90625 30.402344 41.957031 30.398438 42.011719 C 30.316406 42.480469 30.195312 42.875 29.992188 43.289062 C 29.96875 43.332031 29.949219 43.371094 29.925781 43.421875 C 29.769531 43.714844 29.605469 43.953125 29.402344 44.179688 C 29.300781 44.292969 29.207031 44.382812 29.101562 44.480469 C 29.039062 44.53125 28.988281 44.578125 28.925781 44.628906 C 28.878906 44.664062 28.839844 44.691406 28.796875 44.726562 C 28.476562 44.96875 28.15625 45.117188 27.847656 45.417969 C 27.84375 45.421875 27.835938 45.417969 27.832031 45.421875 C 27.816406 45.445312 27.796875 45.464844 27.78125 45.488281 C 27.777344 45.492188 27.769531 45.488281 27.765625 45.492188 C 27.675781 45.613281 27.585938 45.722656 27.53125 45.878906 C 27.527344 45.882812 27.519531 45.890625 27.515625 45.898438 C 27.480469 45.996094 27.445312 46.09375 27.429688 46.207031 C 27.429688 46.210938 27.417969 46.226562 27.417969 46.234375 C 27.410156 46.308594 27.398438 46.386719 27.386719 46.464844 C 27.382812 46.519531 27.382812 46.574219 27.378906 46.632812 C 27.363281 46.925781 27.414062 47.210938 27.363281 47.503906 C 27.351562 47.53125 27.34375 47.558594 27.332031 47.585938 C 27.320312 47.613281 27.300781 47.636719 27.285156 47.65625 C 27.265625 47.679688 27.238281 47.691406 27.214844 47.707031 C 27.1875 47.71875 27.15625 47.71875 27.132812 47.726562 C 27.078125 47.734375 27.03125 47.726562 26.972656 47.710938 C 26.835938 47.671875 26.707031 47.621094 26.585938 47.515625 C 26.574219 47.511719 26.566406 47.511719 26.554688 47.503906 C 26.125 47.1875 25.804688 46.734375 25.527344 46.171875 C 25.523438 46.15625 25.523438 46.148438 25.515625 46.136719 C 25.242188 45.554688 25.09375 44.933594 25.046875 44.273438 C 25.015625 43.867188 25.023438 43.492188 25.082031 43.078125 C 25.09375 43.023438 25.101562 42.976562 25.109375 42.917969 C 25.191406 42.453125 25.3125 42.054688 25.511719 41.640625 C 25.539062 41.601562 25.558594 41.558594 25.578125 41.507812 C 25.910156 40.894531 26.328125 40.460938 26.816406 40.132812 C 26.835938 40.121094 26.855469 40.101562 26.875 40.085938 Z M 26.875 40.085938 " clip-rule="nonzero"/></clipPath><clipPath id="8076c99d17"><path d="M 36.378906 31.738281 L 46.941406 31.738281 L 46.941406 37.21875 L 36.378906 37.21875 Z M 36.378906 31.738281 " clip-rule="nonzero"/></clipPath><clipPath id="0074c73c27"><path d="M 39.28125 35.355469 C 39.101562 35.09375 38.960938 34.824219 38.710938 34.574219 C 38.703125 34.570312 38.710938 34.5625 38.703125 34.558594 C 38.679688 34.542969 38.660156 34.523438 38.640625 34.507812 C 38.632812 34.503906 38.640625 34.496094 38.632812 34.492188 C 38.515625 34.402344 38.402344 34.3125 38.25 34.257812 C 38.242188 34.253906 38.234375 34.246094 38.226562 34.242188 C 38.128906 34.207031 38.03125 34.171875 37.921875 34.15625 C 37.914062 34.15625 37.898438 34.144531 37.894531 34.144531 C 37.816406 34.136719 37.738281 34.125 37.664062 34.113281 C 37.605469 34.109375 37.550781 34.109375 37.496094 34.105469 C 37.203125 34.089844 36.917969 34.140625 36.621094 34.089844 C 36.59375 34.078125 36.566406 34.066406 36.539062 34.058594 C 36.511719 34.046875 36.492188 34.027344 36.46875 34.011719 C 36.449219 33.992188 36.433594 33.964844 36.421875 33.941406 C 36.40625 33.914062 36.40625 33.882812 36.398438 33.859375 C 36.394531 33.800781 36.398438 33.757812 36.414062 33.699219 C 36.457031 33.5625 36.503906 33.433594 36.609375 33.3125 C 36.617188 33.300781 36.617188 33.292969 36.621094 33.28125 C 36.9375 32.851562 37.390625 32.53125 37.957031 32.253906 C 37.96875 32.25 37.976562 32.25 37.992188 32.242188 C 38.570312 31.96875 39.191406 31.820312 39.855469 31.773438 C 40.257812 31.742188 40.636719 31.75 41.046875 31.808594 C 41.101562 31.820312 41.152344 31.828125 41.207031 31.835938 C 41.675781 31.917969 42.074219 32.039062 42.484375 32.238281 C 42.527344 32.265625 42.570312 32.285156 42.617188 32.304688 C 42.910156 32.464844 43.148438 32.628906 43.378906 32.832031 C 43.488281 32.933594 43.582031 33.027344 43.679688 33.132812 C 43.726562 33.195312 43.773438 33.246094 43.824219 33.308594 C 43.859375 33.351562 43.886719 33.394531 43.921875 33.433594 C 44.167969 33.757812 44.3125 34.078125 44.613281 34.386719 C 44.621094 34.390625 44.613281 34.394531 44.621094 34.402344 C 44.640625 34.414062 44.660156 34.4375 44.683594 34.453125 C 44.691406 34.457031 44.683594 34.460938 44.691406 34.46875 C 44.808594 34.558594 44.921875 34.644531 45.074219 34.703125 C 45.082031 34.707031 45.085938 34.710938 45.09375 34.71875 C 45.191406 34.753906 45.289062 34.789062 45.402344 34.804688 C 45.410156 34.804688 45.421875 34.8125 45.429688 34.8125 C 45.507812 34.824219 45.582031 34.835938 45.660156 34.84375 C 45.714844 34.851562 45.769531 34.851562 45.828125 34.855469 C 46.121094 34.871094 46.40625 34.820312 46.699219 34.871094 C 46.726562 34.878906 46.753906 34.890625 46.78125 34.902344 C 46.8125 34.910156 46.832031 34.933594 46.851562 34.945312 C 46.875 34.96875 46.886719 34.992188 46.902344 35.019531 C 46.914062 35.042969 46.914062 35.074219 46.921875 35.101562 C 46.929688 35.15625 46.921875 35.203125 46.910156 35.257812 C 46.867188 35.398438 46.816406 35.523438 46.714844 35.648438 C 46.707031 35.65625 46.707031 35.667969 46.699219 35.679688 C 46.386719 36.105469 45.933594 36.429688 45.367188 36.707031 C 45.351562 36.710938 45.347656 36.710938 45.332031 36.714844 C 44.753906 36.992188 44.132812 37.140625 43.46875 37.1875 C 43.0625 37.214844 42.6875 37.210938 42.277344 37.148438 C 42.21875 37.140625 42.171875 37.128906 42.113281 37.125 C 41.648438 37.042969 41.25 36.921875 40.839844 36.71875 C 40.796875 36.695312 40.753906 36.675781 40.707031 36.652344 C 40.089844 36.320312 39.660156 35.902344 39.332031 35.417969 C 39.316406 35.398438 39.296875 35.375 39.28125 35.355469 Z M 39.28125 35.355469 " clip-rule="nonzero"/></clipPath><clipPath id="d9c2571dfb"><path d="M 8.609375 31.738281 L 19.167969 31.738281 L 19.167969 37.21875 L 8.609375 37.21875 Z M 8.609375 31.738281 " clip-rule="nonzero"/></clipPath><clipPath id="347d6b45d2"><path d="M 11.507812 35.355469 C 11.328125 35.09375 11.1875 34.824219 10.9375 34.574219 C 10.929688 34.570312 10.9375 34.5625 10.929688 34.558594 C 10.910156 34.542969 10.886719 34.523438 10.867188 34.507812 C 10.859375 34.503906 10.867188 34.496094 10.859375 34.492188 C 10.742188 34.402344 10.628906 34.3125 10.476562 34.257812 C 10.46875 34.253906 10.460938 34.246094 10.457031 34.242188 C 10.359375 34.207031 10.261719 34.171875 10.148438 34.15625 C 10.140625 34.15625 10.128906 34.144531 10.121094 34.144531 C 10.042969 34.136719 9.96875 34.125 9.890625 34.113281 C 9.835938 34.109375 9.777344 34.109375 9.722656 34.105469 C 9.429688 34.089844 9.144531 34.140625 8.851562 34.089844 C 8.824219 34.078125 8.792969 34.066406 8.765625 34.058594 C 8.738281 34.046875 8.71875 34.027344 8.695312 34.011719 C 8.675781 33.992188 8.660156 33.964844 8.648438 33.941406 C 8.632812 33.914062 8.632812 33.882812 8.628906 33.859375 C 8.621094 33.800781 8.628906 33.757812 8.640625 33.699219 C 8.683594 33.5625 8.730469 33.433594 8.835938 33.3125 C 8.84375 33.300781 8.84375 33.292969 8.851562 33.28125 C 9.164062 32.851562 9.617188 32.53125 10.183594 32.253906 C 10.195312 32.25 10.203125 32.25 10.21875 32.242188 C 10.796875 31.96875 11.417969 31.820312 12.082031 31.773438 C 12.484375 31.742188 12.863281 31.75 13.273438 31.808594 C 13.332031 31.820312 13.378906 31.828125 13.433594 31.835938 C 13.902344 31.917969 14.300781 32.039062 14.710938 32.238281 C 14.753906 32.265625 14.796875 32.285156 14.84375 32.304688 C 15.136719 32.464844 15.375 32.628906 15.605469 32.832031 C 15.71875 32.933594 15.808594 33.027344 15.90625 33.132812 C 15.953125 33.195312 16.003906 33.246094 16.050781 33.308594 C 16.085938 33.351562 16.113281 33.394531 16.148438 33.433594 C 16.394531 33.757812 16.539062 34.078125 16.839844 34.386719 C 16.847656 34.390625 16.839844 34.394531 16.847656 34.402344 C 16.867188 34.414062 16.890625 34.4375 16.910156 34.453125 C 16.917969 34.457031 16.910156 34.460938 16.917969 34.46875 C 17.035156 34.558594 17.148438 34.644531 17.300781 34.703125 C 17.308594 34.707031 17.316406 34.710938 17.320312 34.71875 C 17.417969 34.753906 17.515625 34.789062 17.628906 34.804688 C 17.636719 34.804688 17.648438 34.8125 17.65625 34.8125 C 17.734375 34.824219 17.808594 34.835938 17.886719 34.84375 C 17.941406 34.851562 18 34.851562 18.054688 34.855469 C 18.347656 34.871094 18.632812 34.820312 18.925781 34.871094 C 18.953125 34.878906 18.984375 34.890625 19.011719 34.902344 C 19.039062 34.910156 19.058594 34.933594 19.082031 34.945312 C 19.101562 34.96875 19.117188 34.992188 19.128906 35.019531 C 19.144531 35.042969 19.144531 35.074219 19.148438 35.101562 C 19.15625 35.15625 19.148438 35.203125 19.136719 35.257812 C 19.09375 35.398438 19.046875 35.523438 18.941406 35.648438 C 18.933594 35.65625 18.933594 35.667969 18.925781 35.679688 C 18.613281 36.105469 18.160156 36.429688 17.59375 36.707031 C 17.582031 36.710938 17.574219 36.710938 17.558594 36.714844 C 16.980469 36.992188 16.359375 37.140625 15.695312 37.1875 C 15.292969 37.214844 14.914062 37.210938 14.503906 37.148438 C 14.449219 37.140625 14.398438 37.128906 14.34375 37.125 C 13.875 37.042969 13.476562 36.921875 13.066406 36.71875 C 13.023438 36.695312 12.980469 36.675781 12.933594 36.652344 C 12.320312 36.320312 11.886719 35.902344 11.558594 35.417969 C 11.542969 35.398438 11.523438 35.375 11.507812 35.355469 Z M 11.507812 35.355469 " clip-rule="nonzero"/></clipPath></defs><g clip-path="url(#fe1e6a3d9b)"><g clip-path="url(#e3b78c806f)"><path fill="#545454" d="M 5.550781 5.550781 L 49.957031 5.550781 L 49.957031 49.957031 L 5.550781 49.957031 Z M 5.550781 5.550781 " fill-opacity="1" fill-rule="nonzero"/></g></g><g fill="#f8f8f8" fill-opacity="1"><g transform="translate(13.858644, 41.136507)"><g><path d="M 1.21875 -19.140625 C 1.21875 -19.734375 1.207031 -20.257812 1.1875 -20.71875 C 1.164062 -21.175781 1.128906 -21.613281 1.078125 -22.03125 C 1.023438 -22.457031 0.960938 -22.890625 0.890625 -23.328125 C 0.816406 -23.773438 0.71875 -24.257812 0.59375 -24.78125 L 7.3125 -24.78125 C 7.414062 -24.4375 7.5 -24.132812 7.5625 -23.875 C 7.625 -23.613281 7.675781 -23.363281 7.71875 -23.125 C 7.769531 -22.894531 7.804688 -22.65625 7.828125 -22.40625 C 7.859375 -22.15625 7.898438 -21.859375 7.953125 -21.515625 C 8.097656 -22.160156 8.285156 -22.691406 8.515625 -23.109375 C 8.753906 -23.535156 9.046875 -23.867188 9.390625 -24.109375 C 9.742188 -24.359375 10.179688 -24.53125 10.703125 -24.625 C 11.222656 -24.726562 11.851562 -24.78125 12.59375 -24.78125 C 13.5625 -24.78125 14.285156 -24.726562 14.765625 -24.625 C 15.253906 -24.53125 15.660156 -24.347656 15.984375 -24.078125 C 16.328125 -23.804688 16.59375 -23.484375 16.78125 -23.109375 C 16.96875 -22.734375 17.144531 -22.203125 17.3125 -21.515625 C 17.488281 -22.160156 17.695312 -22.691406 17.9375 -23.109375 C 18.1875 -23.535156 18.488281 -23.867188 18.84375 -24.109375 C 19.207031 -24.359375 19.648438 -24.53125 20.171875 -24.625 C 20.691406 -24.726562 21.335938 -24.78125 22.109375 -24.78125 C 23.023438 -24.78125 23.773438 -24.710938 24.359375 -24.578125 C 24.941406 -24.441406 25.398438 -24.191406 25.734375 -23.828125 C 26.066406 -23.472656 26.296875 -22.972656 26.421875 -22.328125 C 26.546875 -21.679688 26.609375 -20.863281 26.609375 -19.875 L 26.609375 0 L 19.953125 0 L 19.953125 -16.71875 C 19.953125 -17.582031 19.851562 -18.1875 19.65625 -18.53125 C 19.457031 -18.882812 19.109375 -19.0625 18.609375 -19.0625 C 18.117188 -19.0625 17.765625 -18.882812 17.546875 -18.53125 C 17.335938 -18.1875 17.234375 -17.582031 17.234375 -16.71875 L 17.234375 0 L 10.59375 0 L 10.59375 -17.125 C 10.59375 -18.4375 10.132812 -19.09375 9.21875 -19.09375 C 8.320312 -19.09375 7.875 -18.414062 7.875 -17.0625 L 7.875 0 L 1.21875 0 Z M 1.21875 -19.140625 "/></g></g></g><g clip-path="url(#8453f0592c)"><g clip-path="url(#12fc7bc349)"><path fill="#545454" d="M 30.476562 47.730469 L 25.027344 47.730469 L 25.027344 37.199219 L 30.476562 37.199219 Z M 30.476562 47.730469 " fill-opacity="1" fill-rule="nonzero"/></g></g><g fill="#f8f8f8" fill-opacity="1"><g transform="translate(25.204856, 12.805047)"><g><path d="M 0.09375 -1.375 C 0.09375 -1.414062 0.0859375 -1.453125 0.078125 -1.484375 C 0.078125 -1.515625 0.078125 -1.546875 0.078125 -1.578125 C 0.078125 -1.609375 0.0703125 -1.640625 0.0625 -1.671875 C 0.0625 -1.703125 0.0546875 -1.738281 0.046875 -1.78125 L 0.53125 -1.78125 C 0.53125 -1.757812 0.53125 -1.738281 0.53125 -1.71875 C 0.539062 -1.695312 0.546875 -1.675781 0.546875 -1.65625 C 0.554688 -1.644531 0.5625 -1.628906 0.5625 -1.609375 C 0.5625 -1.585938 0.566406 -1.566406 0.578125 -1.546875 C 0.585938 -1.585938 0.597656 -1.625 0.609375 -1.65625 C 0.628906 -1.6875 0.648438 -1.710938 0.671875 -1.734375 C 0.703125 -1.753906 0.734375 -1.765625 0.765625 -1.765625 C 0.804688 -1.773438 0.851562 -1.78125 0.90625 -1.78125 C 0.976562 -1.78125 1.03125 -1.773438 1.0625 -1.765625 C 1.09375 -1.765625 1.125 -1.753906 1.15625 -1.734375 C 1.175781 -1.710938 1.191406 -1.6875 1.203125 -1.65625 C 1.210938 -1.632812 1.226562 -1.597656 1.25 -1.546875 C 1.257812 -1.585938 1.269531 -1.625 1.28125 -1.65625 C 1.300781 -1.6875 1.320312 -1.710938 1.34375 -1.734375 C 1.375 -1.753906 1.40625 -1.765625 1.4375 -1.765625 C 1.476562 -1.773438 1.53125 -1.78125 1.59375 -1.78125 C 1.65625 -1.78125 1.707031 -1.773438 1.75 -1.765625 C 1.789062 -1.753906 1.820312 -1.734375 1.84375 -1.703125 C 1.875 -1.679688 1.890625 -1.644531 1.890625 -1.59375 C 1.898438 -1.550781 1.90625 -1.492188 1.90625 -1.421875 L 1.90625 0 L 1.4375 0 L 1.4375 -1.203125 C 1.4375 -1.265625 1.425781 -1.304688 1.40625 -1.328125 C 1.394531 -1.359375 1.375 -1.375 1.34375 -1.375 C 1.300781 -1.375 1.269531 -1.359375 1.25 -1.328125 C 1.238281 -1.304688 1.234375 -1.265625 1.234375 -1.203125 L 1.234375 0 L 0.765625 0 L 0.765625 -1.234375 C 0.765625 -1.328125 0.726562 -1.375 0.65625 -1.375 C 0.59375 -1.375 0.5625 -1.320312 0.5625 -1.21875 L 0.5625 0 L 0.09375 0 Z M 0.09375 -1.375 "/></g></g></g><g fill="#f8f8f8" fill-opacity="1"><g transform="translate(27.84543, 12.805047)"><g><path d="M 0.546875 0 C 0.484375 0 0.4375 0 0.40625 0 C 0.375 0 0.347656 0 0.328125 0 C 0.304688 -0.0078125 0.289062 -0.015625 0.28125 -0.015625 C 0.269531 -0.015625 0.257812 -0.015625 0.25 -0.015625 C 0.21875 -0.0234375 0.1875 -0.0390625 0.15625 -0.0625 C 0.132812 -0.09375 0.113281 -0.128906 0.09375 -0.171875 C 0.0820312 -0.222656 0.0703125 -0.285156 0.0625 -0.359375 C 0.0625 -0.429688 0.0625 -0.523438 0.0625 -0.640625 L 0.0625 -1.203125 C 0.0625 -1.234375 0.0625 -1.265625 0.0625 -1.296875 C 0.0703125 -1.328125 0.078125 -1.359375 0.078125 -1.390625 C 0.078125 -1.429688 0.078125 -1.460938 0.078125 -1.484375 C 0.0859375 -1.515625 0.09375 -1.535156 0.09375 -1.546875 C 0.101562 -1.609375 0.125 -1.65625 0.15625 -1.6875 C 0.1875 -1.726562 0.222656 -1.753906 0.265625 -1.765625 C 0.273438 -1.765625 0.285156 -1.765625 0.296875 -1.765625 C 0.316406 -1.773438 0.332031 -1.78125 0.34375 -1.78125 C 0.363281 -1.78125 0.390625 -1.78125 0.421875 -1.78125 C 0.453125 -1.78125 0.492188 -1.78125 0.546875 -1.78125 L 0.984375 -1.78125 L 0.984375 -1.390625 L 0.546875 -1.390625 L 0.546875 -1.078125 L 0.984375 -1.078125 L 0.984375 -0.703125 L 0.546875 -0.703125 L 0.546875 -0.390625 L 0.984375 -0.390625 L 0.984375 0 Z M 0.546875 0 "/></g></g></g><g fill="#f8f8f8" fill-opacity="1"><g transform="translate(29.548112, 12.805047)"><g><path d="M 0.546875 0 C 0.484375 0 0.4375 0 0.40625 0 C 0.375 0 0.347656 0 0.328125 0 C 0.304688 -0.0078125 0.289062 -0.015625 0.28125 -0.015625 C 0.269531 -0.015625 0.257812 -0.015625 0.25 -0.015625 C 0.21875 -0.0234375 0.1875 -0.0390625 0.15625 -0.0625 C 0.132812 -0.09375 0.113281 -0.128906 0.09375 -0.171875 C 0.0820312 -0.222656 0.0703125 -0.285156 0.0625 -0.359375 C 0.0625 -0.429688 0.0625 -0.523438 0.0625 -0.640625 L 0.0625 -1.203125 C 0.0625 -1.234375 0.0625 -1.265625 0.0625 -1.296875 C 0.0703125 -1.328125 0.078125 -1.359375 0.078125 -1.390625 C 0.078125 -1.429688 0.078125 -1.460938 0.078125 -1.484375 C 0.0859375 -1.515625 0.09375 -1.535156 0.09375 -1.546875 C 0.101562 -1.609375 0.125 -1.65625 0.15625 -1.6875 C 0.1875 -1.726562 0.222656 -1.753906 0.265625 -1.765625 C 0.273438 -1.765625 0.285156 -1.765625 0.296875 -1.765625 C 0.316406 -1.773438 0.332031 -1.78125 0.34375 -1.78125 C 0.363281 -1.78125 0.390625 -1.78125 0.421875 -1.78125 C 0.453125 -1.78125 0.492188 -1.78125 0.546875 -1.78125 L 0.984375 -1.78125 L 0.984375 -1.390625 L 0.546875 -1.390625 L 0.546875 -1.078125 L 0.984375 -1.078125 L 0.984375 -0.703125 L 0.546875 -0.703125 L 0.546875 -0.390625 L 0.984375 -0.390625 L 0.984375 0 Z M 0.546875 0 "/></g></g></g><g fill="#f8f8f8" fill-opacity="1"><g transform="translate(31.250793, 12.805047)"><g><path d="M 0.21875 -1.390625 L 0 -1.390625 L 0 -1.78125 L 0.90625 -1.78125 L 0.90625 -1.390625 L 0.6875 -1.390625 L 0.6875 0 L 0.21875 0 Z M 0.21875 -1.390625 "/></g></g></g><g clip-path="url(#8076c99d17)"><g clip-path="url(#0074c73c27)"><path fill="#545454" d="M 46.925781 31.753906 L 46.925781 37.203125 L 36.398438 37.203125 L 36.398438 31.753906 Z M 46.925781 31.753906 " fill-opacity="1" fill-rule="nonzero"/></g></g><g clip-path="url(#d9c2571dfb)"><g clip-path="url(#347d6b45d2)"><path fill="#545454" d="M 19.152344 31.753906 L 19.152344 37.203125 L 8.625 37.203125 L 8.625 31.753906 Z M 19.152344 31.753906 " fill-opacity="1" fill-rule="nonzero"/></g></g></svg>