<svg xmlns="http://www.w3.org/2000/svg" xmlns:xlink="http://www.w3.org/1999/xlink" width="75" zoomAndPan="magnify" viewBox="0 0 56.25 56.249997" height="75" preserveAspectRatio="xMidYMid meet" version="1.0"><defs><g/><clipPath id="ca3a29fbce"><path d="M 5.550781 5.550781 L 49.957031 5.550781 L 49.957031 49.957031 L 5.550781 49.957031 Z M 5.550781 5.550781 " clip-rule="nonzero"/></clipPath><clipPath id="0ea78c8466"><path d="M 41.078125 5.550781 C 45.984375 5.550781 49.957031 9.527344 49.957031 14.433594 L 49.957031 41.078125 C 49.957031 45.984375 45.984375 49.957031 41.078125 49.957031 L 14.433594 49.957031 C 9.527344 49.957031 5.550781 45.984375 5.550781 41.078125 L 5.550781 14.433594 C 5.550781 9.527344 9.527344 5.550781 14.433594 5.550781 Z M 41.078125 5.550781 " clip-rule="nonzero"/></clipPath><clipPath id="f78bf9cf64"><path d="M 28.683594 14.265625 L 48.101562 14.265625 L 48.101562 29.464844 L 28.683594 29.464844 Z M 28.683594 14.265625 " clip-rule="nonzero"/></clipPath><clipPath id="9ad1a3f806"><path d="M 48.101562 21.863281 L 40.503906 14.265625 L 40.503906 18.0625 L 28.683594 18.0625 L 28.683594 25.664062 L 40.503906 25.664062 L 40.503906 29.464844 Z M 48.101562 21.863281 " clip-rule="nonzero"/></clipPath><clipPath id="c88751d6bb"><path d="M 29 38 L 47 38 L 47 43.222656 L 29 43.222656 Z M 29 38 " clip-rule="nonzero"/></clipPath><clipPath id="3006e72717"><path d="M 28.683594 32 L 35 32 L 35 43 L 28.683594 43 Z M 28.683594 32 " clip-rule="nonzero"/></clipPath><clipPath id="6627f72eae"><path d="M 29 31.378906 L 47 31.378906 L 47 39 L 29 39 Z M 29 31.378906 " clip-rule="nonzero"/></clipPath><clipPath id="0368b269b8"><path d="M 40 32 L 47.1875 32 L 47.1875 43 L 40 43 Z M 40 32 " clip-rule="nonzero"/></clipPath></defs><g clip-path="url(#ca3a29fbce)"><g clip-path="url(#0ea78c8466)"><path fill="#545454" d="M 5.550781 5.550781 L 49.957031 5.550781 L 49.957031 49.957031 L 5.550781 49.957031 Z M 5.550781 5.550781 " fill-opacity="1" fill-rule="nonzero"/></g></g><g clip-path="url(#f78bf9cf64)"><g clip-path="url(#9ad1a3f806)"><path fill="#f8f8f8" d="M 28.683594 14.265625 L 48.101562 14.265625 L 48.101562 29.464844 L 28.683594 29.464844 Z M 28.683594 14.265625 " fill-opacity="1" fill-rule="nonzero"/></g></g><g clip-path="url(#c88751d6bb)"><path fill="#ffffff" d="M 46.164062 43.007812 L 40.359375 38.195312 C 40.1875 38.054688 39.941406 38.054688 39.773438 38.195312 L 38.207031 39.492188 C 38.050781 39.625 37.824219 39.625 37.664062 39.492188 L 36.101562 38.195312 C 35.929688 38.054688 35.683594 38.054688 35.515625 38.195312 L 29.707031 43.007812 C 29.628906 43.074219 29.675781 43.207031 29.777344 43.207031 L 46.09375 43.207031 C 46.199219 43.207031 46.246094 43.074219 46.164062 43.007812 " fill-opacity="1" fill-rule="nonzero"/></g><g clip-path="url(#3006e72717)"><path fill="#ffffff" d="M 34.789062 37.109375 L 28.867188 32.199219 C 28.796875 32.140625 28.683594 32.191406 28.683594 32.285156 L 28.683594 42.316406 C 28.683594 42.410156 28.796875 42.464844 28.867188 42.402344 L 34.789062 37.492188 C 34.910156 37.394531 34.910156 37.207031 34.789062 37.109375 " fill-opacity="1" fill-rule="nonzero"/></g><g clip-path="url(#6627f72eae)"><path fill="#ffffff" d="M 29.707031 31.59375 L 37.714844 38.230469 C 37.84375 38.335938 38.03125 38.335938 38.160156 38.230469 L 46.164062 31.59375 C 46.246094 31.527344 46.199219 31.398438 46.09375 31.398438 L 29.777344 31.398438 C 29.675781 31.398438 29.628906 31.527344 29.707031 31.59375 " fill-opacity="1" fill-rule="nonzero"/></g><g clip-path="url(#0368b269b8)"><path fill="#ffffff" d="M 47.003906 32.199219 L 41.082031 37.109375 C 40.960938 37.207031 40.960938 37.394531 41.082031 37.492188 L 47.003906 42.402344 C 47.078125 42.464844 47.1875 42.410156 47.1875 42.316406 L 47.1875 32.285156 C 47.1875 32.191406 47.078125 32.140625 47.003906 32.199219 " fill-opacity="1" fill-rule="nonzero"/></g><g fill="#f8f8f8" fill-opacity="1"><g transform="translate(10.607299, 41.136507)"><g><path d="M 0.625 -5.390625 L 6.84375 -5.390625 L 6.84375 -9.703125 L 5.796875 -9.703125 C 4.503906 -9.703125 3.535156 -9.8125 2.890625 -10.03125 C 2.253906 -10.25 1.757812 -10.660156 1.40625 -11.265625 C 1.238281 -11.535156 1.097656 -11.816406 0.984375 -12.109375 C 0.867188 -12.410156 0.773438 -12.757812 0.703125 -13.15625 C 0.628906 -13.550781 0.578125 -14.019531 0.546875 -14.5625 C 0.523438 -15.101562 0.515625 -15.75 0.515625 -16.5 L 0.515625 -18.015625 C 0.515625 -21.085938 1.023438 -23.054688 2.046875 -23.921875 C 2.265625 -24.097656 2.488281 -24.25 2.71875 -24.375 C 2.957031 -24.5 3.265625 -24.582031 3.640625 -24.625 C 4.015625 -24.675781 4.488281 -24.710938 5.0625 -24.734375 C 5.644531 -24.765625 6.382812 -24.78125 7.28125 -24.78125 L 13 -24.78125 L 13 -19.390625 L 7.171875 -19.390625 L 7.171875 -15.078125 L 8.359375 -15.078125 C 9.421875 -15.078125 10.296875 -14.984375 10.984375 -14.796875 C 11.679688 -14.617188 12.226562 -14.28125 12.625 -13.78125 C 13.03125 -13.289062 13.304688 -12.617188 13.453125 -11.765625 C 13.597656 -10.910156 13.671875 -9.828125 13.671875 -8.515625 L 13.671875 -6.984375 C 13.671875 -5.492188 13.582031 -4.289062 13.40625 -3.375 C 13.238281 -2.457031 12.96875 -1.765625 12.59375 -1.296875 C 12.25 -0.878906 11.859375 -0.570312 11.421875 -0.375 C 10.992188 -0.175781 10.40625 -0.0507812 9.65625 0 L 0.625 0 Z M 0.625 -5.390625 "/></g></g></g><g fill="#f8f8f8" fill-opacity="1"><g transform="translate(15.599915, 12.805047)"><g><path d="M 0.046875 -0.390625 L 0.484375 -0.390625 L 0.484375 -0.703125 L 0.421875 -0.703125 C 0.328125 -0.703125 0.253906 -0.707031 0.203125 -0.71875 C 0.160156 -0.738281 0.125 -0.769531 0.09375 -0.8125 C 0.0820312 -0.832031 0.0703125 -0.851562 0.0625 -0.875 C 0.0625 -0.894531 0.0546875 -0.914062 0.046875 -0.9375 C 0.046875 -0.96875 0.0390625 -1.003906 0.03125 -1.046875 C 0.03125 -1.085938 0.03125 -1.132812 0.03125 -1.1875 L 0.03125 -1.296875 C 0.03125 -1.515625 0.0664062 -1.65625 0.140625 -1.71875 C 0.160156 -1.726562 0.175781 -1.738281 0.1875 -1.75 C 0.207031 -1.757812 0.226562 -1.765625 0.25 -1.765625 C 0.28125 -1.773438 0.316406 -1.78125 0.359375 -1.78125 C 0.398438 -1.78125 0.457031 -1.78125 0.53125 -1.78125 L 0.9375 -1.78125 L 0.9375 -1.390625 L 0.515625 -1.390625 L 0.515625 -1.078125 L 0.59375 -1.078125 C 0.675781 -1.078125 0.738281 -1.070312 0.78125 -1.0625 C 0.832031 -1.050781 0.875 -1.023438 0.90625 -0.984375 C 0.9375 -0.953125 0.957031 -0.90625 0.96875 -0.84375 C 0.976562 -0.78125 0.984375 -0.703125 0.984375 -0.609375 L 0.984375 -0.5 C 0.984375 -0.394531 0.976562 -0.304688 0.96875 -0.234375 C 0.957031 -0.171875 0.9375 -0.125 0.90625 -0.09375 C 0.882812 -0.0625 0.859375 -0.0351562 0.828125 -0.015625 C 0.796875 -0.00390625 0.75 0 0.6875 0 L 0.046875 0 Z M 0.046875 -0.390625 "/></g></g></g><g fill="#f8f8f8" fill-opacity="1"><g transform="translate(17.262629, 12.805047)"><g><path d="M 0.546875 0 C 0.484375 0 0.4375 0 0.40625 0 C 0.375 0 0.347656 0 0.328125 0 C 0.304688 -0.0078125 0.289062 -0.015625 0.28125 -0.015625 C 0.269531 -0.015625 0.257812 -0.015625 0.25 -0.015625 C 0.21875 -0.0234375 0.1875 -0.0390625 0.15625 -0.0625 C 0.132812 -0.09375 0.113281 -0.128906 0.09375 -0.171875 C 0.0820312 -0.222656 0.0703125 -0.285156 0.0625 -0.359375 C 0.0625 -0.429688 0.0625 -0.523438 0.0625 -0.640625 L 0.0625 -1.203125 C 0.0625 -1.234375 0.0625 -1.265625 0.0625 -1.296875 C 0.0703125 -1.328125 0.078125 -1.359375 0.078125 -1.390625 C 0.078125 -1.429688 0.078125 -1.460938 0.078125 -1.484375 C 0.0859375 -1.515625 0.09375 -1.535156 0.09375 -1.546875 C 0.101562 -1.609375 0.125 -1.65625 0.15625 -1.6875 C 0.1875 -1.726562 0.222656 -1.753906 0.265625 -1.765625 C 0.273438 -1.765625 0.285156 -1.765625 0.296875 -1.765625 C 0.316406 -1.773438 0.332031 -1.78125 0.34375 -1.78125 C 0.363281 -1.78125 0.390625 -1.78125 0.421875 -1.78125 C 0.453125 -1.78125 0.492188 -1.78125 0.546875 -1.78125 L 0.984375 -1.78125 L 0.984375 -1.390625 L 0.546875 -1.390625 L 0.546875 -1.078125 L 0.984375 -1.078125 L 0.984375 -0.703125 L 0.546875 -0.703125 L 0.546875 -0.390625 L 0.984375 -0.390625 L 0.984375 0 Z M 0.546875 0 "/></g></g></g><g fill="#f8f8f8" fill-opacity="1"><g transform="translate(18.96531, 12.805047)"><g><path d="M 0.09375 -1.375 C 0.09375 -1.414062 0.0859375 -1.453125 0.078125 -1.484375 C 0.078125 -1.515625 0.078125 -1.546875 0.078125 -1.578125 C 0.078125 -1.609375 0.0703125 -1.640625 0.0625 -1.671875 C 0.0625 -1.703125 0.0546875 -1.738281 0.046875 -1.78125 L 0.53125 -1.78125 C 0.53125 -1.75 0.53125 -1.722656 0.53125 -1.703125 C 0.539062 -1.691406 0.546875 -1.675781 0.546875 -1.65625 C 0.554688 -1.632812 0.5625 -1.613281 0.5625 -1.59375 C 0.5625 -1.582031 0.566406 -1.566406 0.578125 -1.546875 C 0.585938 -1.585938 0.597656 -1.625 0.609375 -1.65625 C 0.628906 -1.6875 0.648438 -1.710938 0.671875 -1.734375 C 0.691406 -1.753906 0.71875 -1.765625 0.75 -1.765625 C 0.789062 -1.773438 0.835938 -1.78125 0.890625 -1.78125 C 0.941406 -1.78125 0.984375 -1.773438 1.015625 -1.765625 C 1.046875 -1.765625 1.070312 -1.757812 1.09375 -1.75 C 1.125 -1.738281 1.144531 -1.722656 1.15625 -1.703125 C 1.164062 -1.691406 1.179688 -1.675781 1.203125 -1.65625 C 1.210938 -1.632812 1.21875 -1.613281 1.21875 -1.59375 C 1.226562 -1.582031 1.234375 -1.5625 1.234375 -1.53125 C 1.234375 -1.507812 1.234375 -1.472656 1.234375 -1.421875 C 1.234375 -1.367188 1.234375 -1.296875 1.234375 -1.203125 L 1.234375 0 L 0.765625 0 L 0.765625 -1.234375 C 0.765625 -1.328125 0.726562 -1.375 0.65625 -1.375 C 0.59375 -1.375 0.5625 -1.320312 0.5625 -1.21875 L 0.5625 0 L 0.09375 0 Z M 0.09375 -1.375 "/></g></g></g><g fill="#f8f8f8" fill-opacity="1"><g transform="translate(20.931773, 12.805047)"><g><path d="M 0.078125 -1.78125 L 0.765625 -1.78125 C 0.804688 -1.78125 0.835938 -1.78125 0.859375 -1.78125 C 0.890625 -1.78125 0.910156 -1.78125 0.921875 -1.78125 C 0.941406 -1.78125 0.953125 -1.78125 0.953125 -1.78125 C 0.960938 -1.78125 0.972656 -1.78125 0.984375 -1.78125 C 1.085938 -1.757812 1.160156 -1.710938 1.203125 -1.640625 C 1.210938 -1.609375 1.222656 -1.550781 1.234375 -1.46875 C 1.242188 -1.394531 1.25 -1.300781 1.25 -1.1875 L 1.25 -0.703125 C 1.25 -0.609375 1.242188 -0.519531 1.234375 -0.4375 C 1.234375 -0.351562 1.226562 -0.285156 1.21875 -0.234375 C 1.1875 -0.0859375 1.109375 -0.0078125 0.984375 0 C 0.972656 0 0.953125 0 0.921875 0 C 0.898438 0 0.847656 0 0.765625 0 L 0.078125 0 Z M 0.65625 -0.390625 C 0.695312 -0.390625 0.722656 -0.398438 0.734375 -0.421875 C 0.753906 -0.441406 0.765625 -0.484375 0.765625 -0.546875 L 0.765625 -1.234375 C 0.765625 -1.304688 0.753906 -1.347656 0.734375 -1.359375 C 0.722656 -1.378906 0.695312 -1.390625 0.65625 -1.390625 L 0.5625 -1.390625 L 0.5625 -0.390625 Z M 0.65625 -0.390625 "/></g></g></g><g fill="#f8f8f8" fill-opacity="1"><g transform="translate(22.890244, 12.805047)"><g/></g></g><g fill="#f8f8f8" fill-opacity="1"><g transform="translate(24.169277, 12.805047)"><g><path d="M 0.09375 -1.375 C 0.09375 -1.414062 0.0859375 -1.453125 0.078125 -1.484375 C 0.078125 -1.515625 0.078125 -1.546875 0.078125 -1.578125 C 0.078125 -1.609375 0.0703125 -1.640625 0.0625 -1.671875 C 0.0625 -1.703125 0.0546875 -1.738281 0.046875 -1.78125 L 0.53125 -1.78125 C 0.53125 -1.757812 0.53125 -1.738281 0.53125 -1.71875 C 0.539062 -1.695312 0.546875 -1.675781 0.546875 -1.65625 C 0.554688 -1.644531 0.5625 -1.628906 0.5625 -1.609375 C 0.5625 -1.585938 0.566406 -1.566406 0.578125 -1.546875 C 0.585938 -1.585938 0.597656 -1.625 0.609375 -1.65625 C 0.628906 -1.6875 0.648438 -1.710938 0.671875 -1.734375 C 0.703125 -1.753906 0.734375 -1.765625 0.765625 -1.765625 C 0.804688 -1.773438 0.851562 -1.78125 0.90625 -1.78125 C 0.976562 -1.78125 1.03125 -1.773438 1.0625 -1.765625 C 1.09375 -1.765625 1.125 -1.753906 1.15625 -1.734375 C 1.175781 -1.710938 1.191406 -1.6875 1.203125 -1.65625 C 1.210938 -1.632812 1.226562 -1.597656 1.25 -1.546875 C 1.257812 -1.585938 1.269531 -1.625 1.28125 -1.65625 C 1.300781 -1.6875 1.320312 -1.710938 1.34375 -1.734375 C 1.375 -1.753906 1.40625 -1.765625 1.4375 -1.765625 C 1.476562 -1.773438 1.53125 -1.78125 1.59375 -1.78125 C 1.65625 -1.78125 1.707031 -1.773438 1.75 -1.765625 C 1.789062 -1.753906 1.820312 -1.734375 1.84375 -1.703125 C 1.875 -1.679688 1.890625 -1.644531 1.890625 -1.59375 C 1.898438 -1.550781 1.90625 -1.492188 1.90625 -1.421875 L 1.90625 0 L 1.4375 0 L 1.4375 -1.203125 C 1.4375 -1.265625 1.425781 -1.304688 1.40625 -1.328125 C 1.394531 -1.359375 1.375 -1.375 1.34375 -1.375 C 1.300781 -1.375 1.269531 -1.359375 1.25 -1.328125 C 1.238281 -1.304688 1.234375 -1.265625 1.234375 -1.203125 L 1.234375 0 L 0.765625 0 L 0.765625 -1.234375 C 0.765625 -1.328125 0.726562 -1.375 0.65625 -1.375 C 0.59375 -1.375 0.5625 -1.320312 0.5625 -1.21875 L 0.5625 0 L 0.09375 0 Z M 0.09375 -1.375 "/></g></g></g><g fill="#f8f8f8" fill-opacity="1"><g transform="translate(26.809851, 12.805047)"><g><path d="M 0.546875 0 C 0.484375 0 0.4375 0 0.40625 0 C 0.375 0 0.347656 0 0.328125 0 C 0.304688 -0.0078125 0.289062 -0.015625 0.28125 -0.015625 C 0.269531 -0.015625 0.257812 -0.015625 0.25 -0.015625 C 0.21875 -0.0234375 0.1875 -0.0390625 0.15625 -0.0625 C 0.132812 -0.09375 0.113281 -0.128906 0.09375 -0.171875 C 0.0820312 -0.222656 0.0703125 -0.285156 0.0625 -0.359375 C 0.0625 -0.429688 0.0625 -0.523438 0.0625 -0.640625 L 0.0625 -1.203125 C 0.0625 -1.234375 0.0625 -1.265625 0.0625 -1.296875 C 0.0703125 -1.328125 0.078125 -1.359375 0.078125 -1.390625 C 0.078125 -1.429688 0.078125 -1.460938 0.078125 -1.484375 C 0.0859375 -1.515625 0.09375 -1.535156 0.09375 -1.546875 C 0.101562 -1.609375 0.125 -1.65625 0.15625 -1.6875 C 0.1875 -1.726562 0.222656 -1.753906 0.265625 -1.765625 C 0.273438 -1.765625 0.285156 -1.765625 0.296875 -1.765625 C 0.316406 -1.773438 0.332031 -1.78125 0.34375 -1.78125 C 0.363281 -1.78125 0.390625 -1.78125 0.421875 -1.78125 C 0.453125 -1.78125 0.492188 -1.78125 0.546875 -1.78125 L 0.984375 -1.78125 L 0.984375 -1.390625 L 0.546875 -1.390625 L 0.546875 -1.078125 L 0.984375 -1.078125 L 0.984375 -0.703125 L 0.546875 -0.703125 L 0.546875 -0.390625 L 0.984375 -0.390625 L 0.984375 0 Z M 0.546875 0 "/></g></g></g><g fill="#f8f8f8" fill-opacity="1"><g transform="translate(28.512532, 12.805047)"><g><path d="M 0.546875 0 C 0.484375 0 0.4375 0 0.40625 0 C 0.375 0 0.347656 0 0.328125 0 C 0.304688 -0.0078125 0.289062 -0.015625 0.28125 -0.015625 C 0.269531 -0.015625 0.257812 -0.015625 0.25 -0.015625 C 0.21875 -0.0234375 0.1875 -0.0390625 0.15625 -0.0625 C 0.132812 -0.09375 0.113281 -0.128906 0.09375 -0.171875 C 0.0820312 -0.222656 0.0703125 -0.285156 0.0625 -0.359375 C 0.0625 -0.429688 0.0625 -0.523438 0.0625 -0.640625 L 0.0625 -1.203125 C 0.0625 -1.234375 0.0625 -1.265625 0.0625 -1.296875 C 0.0703125 -1.328125 0.078125 -1.359375 0.078125 -1.390625 C 0.078125 -1.429688 0.078125 -1.460938 0.078125 -1.484375 C 0.0859375 -1.515625 0.09375 -1.535156 0.09375 -1.546875 C 0.101562 -1.609375 0.125 -1.65625 0.15625 -1.6875 C 0.1875 -1.726562 0.222656 -1.753906 0.265625 -1.765625 C 0.273438 -1.765625 0.285156 -1.765625 0.296875 -1.765625 C 0.316406 -1.773438 0.332031 -1.78125 0.34375 -1.78125 C 0.363281 -1.78125 0.390625 -1.78125 0.421875 -1.78125 C 0.453125 -1.78125 0.492188 -1.78125 0.546875 -1.78125 L 0.984375 -1.78125 L 0.984375 -1.390625 L 0.546875 -1.390625 L 0.546875 -1.078125 L 0.984375 -1.078125 L 0.984375 -0.703125 L 0.546875 -0.703125 L 0.546875 -0.390625 L 0.984375 -0.390625 L 0.984375 0 Z M 0.546875 0 "/></g></g></g><g fill="#f8f8f8" fill-opacity="1"><g transform="translate(30.215213, 12.805047)"><g><path d="M 0.21875 -1.390625 L 0 -1.390625 L 0 -1.78125 L 0.90625 -1.78125 L 0.90625 -1.390625 L 0.6875 -1.390625 L 0.6875 0 L 0.21875 0 Z M 0.21875 -1.390625 "/></g></g></g><g fill="#f8f8f8" fill-opacity="1"><g transform="translate(31.771349, 12.805047)"><g/></g></g><g fill="#f8f8f8" fill-opacity="1"><g transform="translate(33.050382, 12.805047)"><g><path d="M 0.546875 0 C 0.503906 0 0.46875 0 0.4375 0 C 0.40625 0 0.375 0 0.34375 0 C 0.320312 0 0.300781 0 0.28125 0 C 0.269531 -0.0078125 0.257812 -0.015625 0.25 -0.015625 C 0.195312 -0.0234375 0.15625 -0.046875 0.125 -0.078125 C 0.101562 -0.117188 0.0859375 -0.175781 0.078125 -0.25 C 0.078125 -0.257812 0.078125 -0.265625 0.078125 -0.265625 C 0.078125 -0.273438 0.078125 -0.289062 0.078125 -0.3125 C 0.078125 -0.34375 0.078125 -0.378906 0.078125 -0.421875 C 0.078125 -0.460938 0.0703125 -0.53125 0.0625 -0.625 L 0.0625 -1.15625 C 0.0625 -1.3125 0.0664062 -1.429688 0.078125 -1.515625 C 0.0976562 -1.597656 0.125 -1.660156 0.15625 -1.703125 C 0.175781 -1.710938 0.195312 -1.722656 0.21875 -1.734375 C 0.238281 -1.742188 0.257812 -1.753906 0.28125 -1.765625 C 0.3125 -1.773438 0.347656 -1.78125 0.390625 -1.78125 C 0.429688 -1.78125 0.484375 -1.78125 0.546875 -1.78125 L 1.21875 -1.78125 L 1.21875 -1.34375 C 1.1875 -1.351562 1.132812 -1.363281 1.0625 -1.375 C 1 -1.382812 0.9375 -1.390625 0.875 -1.390625 L 0.703125 -1.390625 C 0.671875 -1.390625 0.644531 -1.390625 0.625 -1.390625 C 0.601562 -1.390625 0.585938 -1.382812 0.578125 -1.375 C 0.566406 -1.363281 0.554688 -1.34375 0.546875 -1.3125 C 0.546875 -1.289062 0.546875 -1.265625 0.546875 -1.234375 L 0.546875 -0.59375 C 0.546875 -0.550781 0.546875 -0.515625 0.546875 -0.484375 C 0.554688 -0.453125 0.5625 -0.425781 0.5625 -0.40625 C 0.570312 -0.394531 0.582031 -0.390625 0.59375 -0.390625 C 0.613281 -0.390625 0.640625 -0.390625 0.671875 -0.390625 L 0.75 -0.390625 L 0.75 -0.8125 C 0.75 -0.851562 0.742188 -0.890625 0.734375 -0.921875 C 0.734375 -0.953125 0.722656 -0.984375 0.703125 -1.015625 L 1.21875 -1.015625 L 1.21875 -0.390625 C 1.21875 -0.335938 1.21875 -0.289062 1.21875 -0.25 C 1.21875 -0.21875 1.210938 -0.1875 1.203125 -0.15625 C 1.203125 -0.132812 1.195312 -0.113281 1.1875 -0.09375 C 1.175781 -0.0820312 1.164062 -0.0703125 1.15625 -0.0625 C 1.132812 -0.0507812 1.113281 -0.0390625 1.09375 -0.03125 C 1.082031 -0.0195312 1.0625 -0.0078125 1.03125 0 C 1 0 0.960938 0 0.921875 0 C 0.878906 0 0.820312 0 0.75 0 Z M 0.546875 0 "/></g></g></g><g fill="#f8f8f8" fill-opacity="1"><g transform="translate(34.987537, 12.805047)"><g><path d="M 0.09375 -1.375 C 0.09375 -1.414062 0.0859375 -1.453125 0.078125 -1.484375 C 0.078125 -1.515625 0.078125 -1.546875 0.078125 -1.578125 C 0.078125 -1.609375 0.0703125 -1.640625 0.0625 -1.671875 C 0.0625 -1.703125 0.0546875 -1.738281 0.046875 -1.78125 L 0.53125 -1.78125 C 0.53125 -1.757812 0.53125 -1.738281 0.53125 -1.71875 C 0.539062 -1.695312 0.546875 -1.675781 0.546875 -1.65625 C 0.554688 -1.644531 0.5625 -1.628906 0.5625 -1.609375 C 0.5625 -1.585938 0.566406 -1.566406 0.578125 -1.546875 C 0.585938 -1.585938 0.597656 -1.625 0.609375 -1.65625 C 0.628906 -1.6875 0.648438 -1.710938 0.671875 -1.734375 C 0.703125 -1.753906 0.734375 -1.765625 0.765625 -1.765625 C 0.804688 -1.773438 0.851562 -1.78125 0.90625 -1.78125 C 0.976562 -1.78125 1.03125 -1.773438 1.0625 -1.765625 C 1.09375 -1.765625 1.125 -1.753906 1.15625 -1.734375 C 1.175781 -1.710938 1.191406 -1.6875 1.203125 -1.65625 C 1.210938 -1.632812 1.226562 -1.597656 1.25 -1.546875 C 1.257812 -1.585938 1.269531 -1.625 1.28125 -1.65625 C 1.300781 -1.6875 1.320312 -1.710938 1.34375 -1.734375 C 1.375 -1.753906 1.40625 -1.765625 1.4375 -1.765625 C 1.476562 -1.773438 1.53125 -1.78125 1.59375 -1.78125 C 1.65625 -1.78125 1.707031 -1.773438 1.75 -1.765625 C 1.789062 -1.753906 1.820312 -1.734375 1.84375 -1.703125 C 1.875 -1.679688 1.890625 -1.644531 1.890625 -1.59375 C 1.898438 -1.550781 1.90625 -1.492188 1.90625 -1.421875 L 1.90625 0 L 1.4375 0 L 1.4375 -1.203125 C 1.4375 -1.265625 1.425781 -1.304688 1.40625 -1.328125 C 1.394531 -1.359375 1.375 -1.375 1.34375 -1.375 C 1.300781 -1.375 1.269531 -1.359375 1.25 -1.328125 C 1.238281 -1.304688 1.234375 -1.265625 1.234375 -1.203125 L 1.234375 0 L 0.765625 0 L 0.765625 -1.234375 C 0.765625 -1.328125 0.726562 -1.375 0.65625 -1.375 C 0.59375 -1.375 0.5625 -1.320312 0.5625 -1.21875 L 0.5625 0 L 0.09375 0 Z M 0.09375 -1.375 "/></g></g></g><g fill="#f8f8f8" fill-opacity="1"><g transform="translate(37.628111, 12.805047)"><g><path d="M 0.078125 -1.421875 C 0.078125 -1.492188 0.0820312 -1.550781 0.09375 -1.59375 C 0.113281 -1.644531 0.140625 -1.6875 0.171875 -1.71875 C 0.203125 -1.738281 0.242188 -1.753906 0.296875 -1.765625 C 0.359375 -1.773438 0.445312 -1.78125 0.5625 -1.78125 L 0.765625 -1.78125 C 0.878906 -1.78125 0.960938 -1.773438 1.015625 -1.765625 C 1.078125 -1.753906 1.125 -1.738281 1.15625 -1.71875 C 1.1875 -1.6875 1.207031 -1.644531 1.21875 -1.59375 C 1.238281 -1.550781 1.25 -1.492188 1.25 -1.421875 L 1.25 0 L 0.765625 0 L 0.765625 -0.375 L 0.5625 -0.375 L 0.5625 0 L 0.078125 0 Z M 0.765625 -0.765625 L 0.765625 -1.25 C 0.765625 -1.351562 0.726562 -1.40625 0.65625 -1.40625 C 0.59375 -1.40625 0.5625 -1.351562 0.5625 -1.25 L 0.5625 -0.765625 Z M 0.765625 -0.765625 "/></g></g></g><g fill="#f8f8f8" fill-opacity="1"><g transform="translate(39.602569, 12.805047)"><g><path d="M 0.078125 -1.78125 L 0.5625 -1.78125 L 0.5625 0 L 0.078125 0 Z M 0.078125 -1.78125 "/></g></g></g><g fill="#f8f8f8" fill-opacity="1"><g transform="translate(40.897588, 12.805047)"><g><path d="M 0.078125 -1.328125 C 0.078125 -1.429688 0.078125 -1.519531 0.078125 -1.59375 C 0.078125 -1.664062 0.0703125 -1.726562 0.0625 -1.78125 L 0.609375 -1.78125 C 0.585938 -1.707031 0.570312 -1.632812 0.5625 -1.5625 C 0.5625 -1.5 0.5625 -1.425781 0.5625 -1.34375 L 0.5625 -0.390625 L 0.890625 -0.40625 L 0.796875 0 L 0.078125 0 Z M 0.078125 -1.328125 "/></g></g></g></svg>